<?xml version="1.0" standalone="no"?>
<!DOCTYPE svg PUBLIC "-//W3C//DTD SVG 20010904//EN"
 "http://www.w3.org/TR/2001/REC-SVG-20010904/DTD/svg10.dtd">
<svg version="1.0" xmlns="http://www.w3.org/2000/svg"
 width="700.000000pt" height="700.000000pt" viewBox="0 0 700.000000 700.000000"
 preserveAspectRatio="xMidYMid meet">
<metadata>
Created by potrace 1.11, written by Peter Selinger 2001-2013
</metadata>
<g transform="translate(0.000000,700.000000) scale(0.100000,-0.100000)"
fill="#000000" stroke="none">
<path d="M0 3500 l0 -3500 3500 0 3500 0 0 3500 0 3500 -3500 0 -3500 0 0
-3500z m6331 1784 c69 -21 127 -68 164 -135 l30 -54 0 -195 c0 -115 -5 -224
-13 -265 -20 -110 -81 -312 -124 -410 -21 -49 -50 -115 -63 -145 -296 -686
-643 -1225 -1056 -1641 -211 -213 -450 -406 -634 -512 -152 -88 -420 -188
-571 -213 -141 -23 -396 -15 -475 15 -110 42 -152 124 -174 346 -12 112 -17
117 -52 53 -36 -63 -98 -121 -172 -162 -107 -58 -397 -56 -588 5 -125 39 -279
106 -413 177 -308 164 -806 633 -1030 968 -29 44 -68 97 -85 119 -60 75 -245
378 -319 525 -196 384 -294 717 -284 960 4 97 8 115 36 173 56 114 150 155
332 144 99 -6 270 -46 398 -92 119 -43 743 -339 828 -392 68 -43 473 -269 647
-361 60 -32 280 -164 439 -264 61 -39 102 -58 123 -58 21 0 80 29 186 91 234
138 664 380 954 536 143 78 301 164 350 193 583 338 1066 559 1315 603 63 11
200 6 251 -9z"/>
</g>
</svg>
