<?xml version="1.0" encoding="UTF-8" standalone="no"?>
<!-- Created with Inkscape (http://www.inkscape.org/) -->

<svg
   xmlns:dc="http://purl.org/dc/elements/1.1/"
   xmlns:cc="http://creativecommons.org/ns#"
   xmlns:rdf="http://www.w3.org/1999/02/22-rdf-syntax-ns#"
   xmlns:svg="http://www.w3.org/2000/svg"
   xmlns="http://www.w3.org/2000/svg"
   xmlns:xlink="http://www.w3.org/1999/xlink"
   xmlns:sodipodi="http://sodipodi.sourceforge.net/DTD/sodipodi-0.dtd"
   xmlns:inkscape="http://www.inkscape.org/namespaces/inkscape"
   width="80.208mm"
   height="40.207851mm"
   viewBox="0 0 80.208001 40.207851"
   version="1.1"
   id="svg8"
   inkscape:version="0.92.3 (2405546, 2018-03-11)"
   sodipodi:docname="v1.svg">
  <sodipodi:namedview
     id="base"
     pagecolor="#ffffff"
     bordercolor="#666666"
     borderopacity="1.0"
     inkscape:pageopacity="0.0"
     inkscape:pageshadow="2"
     inkscape:zoom="1.4"
     inkscape:cx="85.192801"
     inkscape:cy="-16.634681"
     inkscape:document-units="mm"
     inkscape:current-layer="layer1"
     showgrid="false"
     inkscape:window-width="1440"
     inkscape:window-height="851"
     inkscape:window-x="0"
     inkscape:window-y="25"
     inkscape:window-maximized="1" />
  <defs
     id="defs2">
    <inkscape:perspective
       sodipodi:type="inkscape:persp3d"
       inkscape:vp_x="0 : 23.999998 : 1"
       inkscape:vp_y="0 : 999.99992 : 0"
       inkscape:vp_z="48 : 23.999998 : 1"
       inkscape:persp3d-origin="24 : 15.999999 : 1"
       id="perspective183" />
    <linearGradient
       id="linearGradient2994">
      <stop
         style="stop-color:#000000;stop-opacity:1;"
         offset="0"
         id="stop2996" />
      <stop
         style="stop-color:#c9c9c9;stop-opacity:1;"
         offset="1"
         id="stop2998" />
    </linearGradient>
    <linearGradient
       inkscape:collect="always"
       id="linearGradient2984">
      <stop
         style="stop-color:#e7e2b8;stop-opacity:1;"
         offset="0"
         id="stop2986" />
      <stop
         style="stop-color:#e7e2b8;stop-opacity:0;"
         offset="1"
         id="stop2988" />
    </linearGradient>
    <linearGradient
       id="linearGradient2974">
      <stop
         style="stop-color:#c1c1c1;stop-opacity:1;"
         offset="0"
         id="stop2976" />
      <stop
         style="stop-color:#acacac;stop-opacity:1;"
         offset="1"
         id="stop2978" />
    </linearGradient>
    <linearGradient
       id="linearGradient2966">
      <stop
         style="stop-color:#ffd1d1;stop-opacity:1;"
         offset="0"
         id="stop2968" />
      <stop
         id="stop3006"
         offset="0.5"
         style="stop-color:#ff1d1d;stop-opacity:1;" />
      <stop
         style="stop-color:#6f0000;stop-opacity:1;"
         offset="1"
         id="stop2970" />
    </linearGradient>
    <linearGradient
       id="linearGradient2919">
      <stop
         style="stop-color:#a3a4a0;stop-opacity:1;"
         offset="0"
         id="stop2921" />
      <stop
         style="stop-color:#888a85;stop-opacity:1;"
         offset="1"
         id="stop2923" />
    </linearGradient>
    <linearGradient
       id="linearGradient2873">
      <stop
         style="stop-color:#939393;stop-opacity:1;"
         offset="0"
         id="stop2875" />
      <stop
         style="stop-color:#424242;stop-opacity:1;"
         offset="1"
         id="stop2877" />
    </linearGradient>
    <linearGradient
       inkscape:collect="always"
       id="linearGradient2865">
      <stop
         style="stop-color:#000000;stop-opacity:1;"
         offset="0"
         id="stop2867" />
      <stop
         style="stop-color:#000000;stop-opacity:0;"
         offset="1"
         id="stop2869" />
    </linearGradient>
    <linearGradient
       id="linearGradient2855">
      <stop
         style="stop-color:#dfdfdf;stop-opacity:1;"
         offset="0"
         id="stop2857" />
      <stop
         style="stop-color:#ffffff;stop-opacity:1;"
         offset="1"
         id="stop2859" />
    </linearGradient>
    <linearGradient
       gradientTransform="matrix(0.493304,-0.716654,-0.716654,-0.493304,53.68973,79.4192)"
       y2="68.224884"
       x2="28.244684"
       y1="60.445503"
       x1="28.244684"
       gradientUnits="userSpaceOnUse"
       id="linearGradient9972"
       xlink:href="#linearGradient9910"
       inkscape:collect="always" />
    <linearGradient
       gradientTransform="matrix(0.493304,-0.716654,-0.716654,-0.493304,53.68973,79.4192)"
       y2="68.224884"
       x2="28.244684"
       y1="60.445503"
       x1="28.244684"
       gradientUnits="userSpaceOnUse"
       id="linearGradient9968"
       xlink:href="#linearGradient9920"
       inkscape:collect="always" />
    <linearGradient
       gradientTransform="matrix(0.493304,-0.716654,-0.716654,-0.493304,53.68973,79.4192)"
       y2="62.827091"
       x2="38.061356"
       y1="62.401989"
       x1="55.876038"
       gradientUnits="userSpaceOnUse"
       id="linearGradient9961"
       xlink:href="#linearGradient6395"
       inkscape:collect="always" />
    <linearGradient
       gradientUnits="userSpaceOnUse"
       y2="44.110912"
       x2="20.682873"
       y1="27.140348"
       x1="20.064156"
       id="linearGradient6401"
       xlink:href="#linearGradient6395"
       inkscape:collect="always" />
    <radialGradient
       r="14.875"
       fy="37.75"
       fx="23.25"
       cy="37.75"
       cx="23.25"
       gradientTransform="matrix(1,0,0,0.420168,0,21.88866)"
       gradientUnits="userSpaceOnUse"
       id="radialGradient6353"
       xlink:href="#linearGradient2865"
       inkscape:collect="always" />
    <linearGradient
       y2="30.703125"
       x2="25.514589"
       y1="31.046875"
       x1="25.71875"
       gradientTransform="matrix(0.00525957,0.999987,0.999987,-0.00525957,48.6929,-14.14491)"
       gradientUnits="userSpaceOnUse"
       id="linearGradient6349"
       xlink:href="#linearGradient2994"
       inkscape:collect="always" />
    <radialGradient
       r="3.2408545"
       fy="27.640751"
       fx="29.053354"
       cy="27.640751"
       cx="29.053354"
       gradientTransform="matrix(0.0153767,2.923527,2.029691,-0.01067544,20.39098,-69.72665)"
       gradientUnits="userSpaceOnUse"
       id="radialGradient6347"
       xlink:href="#linearGradient2984"
       inkscape:collect="always" />
    <linearGradient
       y2="22.625"
       x2="47.6875"
       y1="19.8125"
       x1="46"
       gradientTransform="matrix(0.00525957,0.999987,0.999987,-0.00525957,42.99552,-2.496241)"
       gradientUnits="userSpaceOnUse"
       id="linearGradient6345"
       xlink:href="#linearGradient2974"
       inkscape:collect="always" />
    <linearGradient
       y2="22.250591"
       x2="50.988335"
       y1="17.376184"
       x1="48.90625"
       gradientTransform="matrix(0.00525957,0.999987,0.999987,-0.00525957,42.9955,-2.496241)"
       gradientUnits="userSpaceOnUse"
       id="linearGradient6343"
       xlink:href="#linearGradient2966"
       inkscape:collect="always" />
    <linearGradient
       gradientUnits="userSpaceOnUse"
       y2="14.1875"
       x2="37.625"
       y1="14.1875"
       x1="11.75"
       id="linearGradient5074"
       xlink:href="#linearGradient5068"
       inkscape:collect="always" />
    <linearGradient
       gradientTransform="translate(0,5.625)"
       gradientUnits="userSpaceOnUse"
       y2="19.0846"
       x2="15.625"
       y1="19.4596"
       x1="30.875"
       id="linearGradient5064"
       xlink:href="#linearGradient5058"
       inkscape:collect="always" />
    <radialGradient
       gradientUnits="userSpaceOnUse"
       gradientTransform="matrix(1,0,0,0.420168,0,21.88866)"
       r="14.875"
       fy="37.75"
       fx="23.25"
       cy="37.75"
       cx="23.25"
       id="radialGradient5054"
       xlink:href="#linearGradient2865"
       inkscape:collect="always" />
    <linearGradient
       gradientTransform="translate(0,5.625)"
       gradientUnits="userSpaceOnUse"
       y2="26.0846"
       x2="34.250416"
       y1="26.0846"
       x1="15.375"
       id="linearGradient5042"
       xlink:href="#linearGradient5036"
       inkscape:collect="always" />
    <linearGradient
       id="linearGradient5036">
      <stop
         id="stop5038"
         offset="0"
         style="stop-color:#f5f5f5;stop-opacity:0.09;" />
      <stop
         style="stop-color:#ffffff;stop-opacity:0.89999998;"
         offset="0.2631579"
         id="stop5044" />
      <stop
         id="stop5088"
         offset="0.74792242"
         style="stop-color:#c7c7c7;stop-opacity:0.46000001;" />
      <stop
         id="stop5040"
         offset="1"
         style="stop-color:#ffffff;stop-opacity:0.78039217;" />
    </linearGradient>
    <linearGradient
       id="linearGradient5058">
      <stop
         id="stop5060"
         offset="0"
         style="stop-color:#959791;stop-opacity:1;" />
      <stop
         style="stop-color:#f8f8f8;stop-opacity:1;"
         offset="0.5"
         id="stop5066" />
      <stop
         id="stop5062"
         offset="1"
         style="stop-color:#8c8c8c;stop-opacity:1;" />
    </linearGradient>
    <linearGradient
       id="linearGradient5068">
      <stop
         id="stop5070"
         offset="0"
         style="stop-color:#ffffff;stop-opacity:1;" />
      <stop
         style="stop-color:#ffffff;stop-opacity:0.69;"
         offset="0.32894737"
         id="stop5078" />
      <stop
         style="stop-color:#c2c2c2;stop-opacity:0.34;"
         offset="0.65789473"
         id="stop5076" />
      <stop
         id="stop5072"
         offset="1"
         style="stop-color:#ffffff;stop-opacity:0;" />
    </linearGradient>
    <linearGradient
       id="linearGradient6395"
       inkscape:collect="always">
      <stop
         id="stop6397"
         offset="0"
         style="stop-color:#ffffff;stop-opacity:1;" />
      <stop
         id="stop6399"
         offset="1"
         style="stop-color:#ffffff;stop-opacity:0;" />
    </linearGradient>
    <linearGradient
       id="linearGradient9910">
      <stop
         id="stop9912"
         offset="0"
         style="stop-color:#729fcf;stop-opacity:1;" />
      <stop
         style="stop-color:#a5bfda;stop-opacity:1;"
         offset="0.31578946"
         id="stop9918" />
      <stop
         id="stop9914"
         offset="1"
         style="stop-color:#376ca4;stop-opacity:1;" />
    </linearGradient>
    <linearGradient
       id="linearGradient9920">
      <stop
         style="stop-color:#5b90c8;stop-opacity:1;"
         offset="0"
         id="stop9922" />
      <stop
         id="stop9924"
         offset="0.31578946"
         style="stop-color:#8fb0d1;stop-opacity:1;" />
      <stop
         style="stop-color:#34679d;stop-opacity:1;"
         offset="1"
         id="stop9926" />
    </linearGradient>
    <radialGradient
       r="14.875"
       fy="37.75"
       fx="23.25"
       cy="37.75"
       cx="23.25"
       gradientTransform="matrix(1,0,0,0.420168,0,21.88866)"
       gradientUnits="userSpaceOnUse"
       id="radialGradient2055"
       xlink:href="#linearGradient2865"
       inkscape:collect="always" />
    <radialGradient
       r="3.2408545"
       fy="27.640751"
       fx="29.053354"
       cy="27.640751"
       cx="29.053354"
       gradientTransform="matrix(0.0153767,2.923527,2.029691,-0.01067544,20.39098,-69.72665)"
       gradientUnits="userSpaceOnUse"
       id="radialGradient2051"
       xlink:href="#linearGradient2984"
       inkscape:collect="always" />
    <radialGradient
       gradientUnits="userSpaceOnUse"
       gradientTransform="matrix(1,0,0,0.420168,0,21.88866)"
       r="14.875"
       fy="37.75"
       fx="23.25"
       cy="37.75"
       cx="23.25"
       id="radialGradient2041"
       xlink:href="#linearGradient2865"
       inkscape:collect="always" />
    <radialGradient
       inkscape:collect="always"
       xlink:href="#linearGradient2865"
       id="radialGradient2083"
       gradientUnits="userSpaceOnUse"
       gradientTransform="matrix(1,0,0,0.420168,0,21.88866)"
       cx="23.25"
       cy="37.75"
       fx="23.25"
       fy="37.75"
       r="14.875" />
    <radialGradient
       inkscape:collect="always"
       xlink:href="#linearGradient2865"
       id="radialGradient1499"
       gradientUnits="userSpaceOnUse"
       gradientTransform="matrix(1,0,0,0.420168,0,21.88866)"
       cx="23.25"
       cy="37.75"
       fx="23.25"
       fy="37.75"
       r="14.875" />
  </defs>
  <metadata
     id="metadata5">
    <rdf:RDF>
      <cc:Work
         rdf:about="">
        <dc:format>image/svg+xml</dc:format>
        <dc:type
           rdf:resource="http://purl.org/dc/dcmitype/StillImage" />
        <dc:title />
      </cc:Work>
    </rdf:RDF>
  </metadata>
  <g
     id="layer1"
     inkscape:groupmode="layer"
     inkscape:label="Layer 1"
     transform="translate(-0.84093997,-91.860136)">
    <rect
       ry="3.7633929"
       rx="3.7633929"
       y="91.963989"
       x="0.94494003"
       height="20"
       width="80"
       id="rect815"
       style="fill:none;fill-opacity:1;stroke:#ff0000;stroke-width:0.2077059;stroke-linecap:round;stroke-miterlimit:4;stroke-dasharray:none;stroke-dashoffset:0;stroke-opacity:1" />
    <circle
       r="4"
       cy="101.96428"
       cx="71.191811"
       id="path817"
       style="fill:none;fill-opacity:1;stroke:#ff0000;stroke-width:0.2;stroke-linecap:round;stroke-miterlimit:4;stroke-dasharray:none;stroke-dashoffset:0;stroke-opacity:1" />
    <g
       id="g842"
       transform="matrix(0.26458333,0,0,0.26458333,7.6498859,102.36115)"
       inkscape:label="Hershey Text"
       style="stroke:#0000ff">
      <path
         id="path824"
         transform="translate(10)"
         style="fill:none;stroke:#0000ff"
         d="M -7,-12 7,9 M 7,-12 -7,9"
         inkscape:connector-curvature="0" />
      <path
         id="path826"
         transform="translate(29)"
         style="fill:none;stroke:#0000ff"
         d="m -1,-5 -2,1 -2,2 -1,3 v 2 l 1,3 2,2 2,1 H 2 L 4,8 6,6 7,3 V 1 L 6,-2 4,-4 2,-5 h -3"
         inkscape:connector-curvature="0" />
      <path
         id="path828"
         transform="translate(48)"
         style="fill:none;stroke:#0000ff"
         d="M -5,-5 V 5 l 1,3 2,1 H 1 L 3,8 6,5 M 6,-5 V 9"
         inkscape:connector-curvature="0" />
      <path
         id="path830"
         transform="translate(65)"
         style="fill:none;stroke:#0000ff"
         d="M -3,-5 V 9 m 0,-8 1,-3 2,-2 2,-1 h 3"
         inkscape:connector-curvature="0" />
      <path
         id="path832"
         transform="translate(80)"
         style="fill:none;stroke:#0000ff"
         d="M -5,-5 V 9 m 0,-10 3,-3 2,-1 h 3 l 2,1 1,3 V 9"
         inkscape:connector-curvature="0" />
      <path
         id="path834"
         transform="translate(99)"
         style="fill:none;stroke:#0000ff"
         d="M 6,-5 V 9 M 6,-2 4,-4 2,-5 h -3 l -2,1 -2,2 -1,3 v 2 l 1,3 2,2 2,1 H 2 L 4,8 6,6"
         inkscape:connector-curvature="0" />
      <path
         id="path836"
         transform="translate(113)"
         style="fill:none;stroke:#0000ff"
         d="M 0,-12 V 9"
         inkscape:connector-curvature="0" />
      <path
         id="path838"
         transform="translate(130)"
         style="fill:none;stroke:#0000ff"
         d="M 0,-9 V 9 M -9,0 H 9"
         inkscape:connector-curvature="0" />
      <path
         id="path840"
         transform="translate(156)"
         style="fill:none;stroke:#0000ff"
         d="M 0,-9 V 9 M -9,0 H 9"
         inkscape:connector-curvature="0" />
    </g>
    <g
       id="g948"
       transform="matrix(0.14183331,0.05670345,-0.05670345,0.14183331,49.782265,95.771524)"
       inkscape:label="Hershey Text"
       style="stroke:#0000ff">
      <path
         id="path936"
         transform="translate(7)"
         style="fill:none;stroke:#0000ff"
         d="M -3,-5 V 9 m 0,-8 1,-3 2,-2 2,-1 h 3"
         inkscape:connector-curvature="0" />
      <path
         id="path938"
         transform="translate(22)"
         style="fill:none;stroke:#0000ff"
         d="m -1,-5 -2,1 -2,2 -1,3 v 2 l 1,3 2,2 2,1 H 2 L 4,8 6,6 7,3 V 1 L 6,-2 4,-4 2,-5 h -3"
         inkscape:connector-curvature="0" />
      <path
         id="path940"
         transform="translate(41)"
         style="fill:none;stroke:#0000ff"
         d="M 6,-2 4,-4 2,-5 h -3 l -2,1 -2,2 -1,3 v 2 l 1,3 2,2 2,1 H 2 L 4,8 6,6"
         inkscape:connector-curvature="0" />
      <path
         id="path942"
         transform="translate(59)"
         style="fill:none;stroke:#0000ff"
         d="M -5,-12 V 9 M 5,-5 -5,5 m 4,-4 7,8"
         inkscape:connector-curvature="0" />
      <path
         id="path944"
         transform="translate(75)"
         style="fill:none;stroke:#0000ff"
         d="M 6,-2 5,-4 2,-5 h -3 l -3,1 -1,2 1,2 2,1 5,1 2,1 1,2 V 6 L 5,8 2,9 H -1 L -4,8 -5,6"
         inkscape:connector-curvature="0" />
      <path
         id="path946"
         transform="translate(89)"
         style="fill:none;stroke:#0000ff"
         d="M 0,-12 V 2 M 0,7 -1,8 0,9 1,8 0,7"
         inkscape:connector-curvature="0" />
    </g>
    <g
       id="g925"
       transform="translate(0.0134241,-28.857941)">
      <path
         sodipodi:nodetypes="cssssssc"
         inkscape:connector-curvature="0"
         id="rect815-3"
         d="m 77.168123,140.82193 c 2.08492,0 3.763393,1.67847 3.763393,3.76339 v 12.47322 c 0,2.08492 -1.678473,3.76339 -3.763393,3.76339 H 4.6949088 c -2.0849197,0 -3.76339293,-1.67847 -3.76339293,-3.76339 v -12.47322 c 0,-2.08492 1.67847323,-3.76339 3.76339293,-3.76339"
         style="fill:none;fill-opacity:1;stroke:#ff0000;stroke-width:0.208;stroke-linecap:round;stroke-miterlimit:4;stroke-dasharray:none;stroke-dashoffset:0;stroke-opacity:1" />
      <circle
         style="fill:none;fill-opacity:1;stroke:#ff0000;stroke-width:0.2;stroke-linecap:round;stroke-miterlimit:4;stroke-dasharray:none;stroke-dashoffset:0;stroke-opacity:1"
         id="path817-6"
         cx="71.178383"
         cy="150.82222"
         r="4" />
      <g
         transform="translate(5.2916669)"
         id="g920">
        <path
           inkscape:connector-curvature="0"
           d="m 15.044796,149.89617 -0.529167,0.26459 -0.529167,0.52916 -0.264583,0.79375 v 0.52917 l 0.264583,0.79375 0.529167,0.52917 0.529167,0.26458 h 0.79375 l 0.529166,-0.26458 0.529167,-0.52917 0.264583,-0.79375 v -0.52917 l -0.264583,-0.79375 -0.529167,-0.52916 -0.529166,-0.26459 h -0.79375"
           style="fill:none;stroke:#0000ff;stroke-width:0.26458332"
           id="path826-3" />
        <path
           inkscape:connector-curvature="0"
           d="m 19.013545,149.89617 v 2.64584 l 0.264584,0.79375 0.529166,0.26458 h 0.79375 l 0.529167,-0.26458 0.79375,-0.79375 m 0,-2.64584 v 3.70417"
           style="fill:none;stroke:#0000ff;stroke-width:0.26458332"
           id="path828-5" />
        <path
           inkscape:connector-curvature="0"
           d="m 24.040628,149.89617 v 3.70417 m 0,-2.11667 0.264583,-0.79375 0.529167,-0.52916 0.529167,-0.26459 h 0.79375"
           style="fill:none;stroke:#0000ff;stroke-width:0.26458332"
           id="path830-6" />
        <path
           inkscape:connector-curvature="0"
           d="m 27.480211,149.89617 v 3.70417 m 0,-2.64583 0.79375,-0.79375 0.529167,-0.26459 h 0.79375 l 0.529167,0.26459 0.264583,0.79375 v 2.64583"
           style="fill:none;stroke:#0000ff;stroke-width:0.26458332"
           id="path832-2" />
        <path
           inkscape:connector-curvature="0"
           d="m 35.417712,149.89617 v 3.70417 m 0,-2.91042 -0.529167,-0.52916 -0.529166,-0.26459 h -0.79375 l -0.529167,0.26459 -0.529167,0.52916 -0.264583,0.79375 v 0.52917 l 0.264583,0.79375 0.529167,0.52917 0.529167,0.26458 h 0.79375 l 0.529166,-0.26458 0.529167,-0.52917"
           style="fill:none;stroke:#0000ff;stroke-width:0.26458332"
           id="path834-9" />
        <path
           inkscape:connector-curvature="0"
           d="m 37.534378,148.04409 v 5.55625"
           style="fill:none;stroke:#0000ff;stroke-width:0.26458332"
           id="path836-1" />
        <path
           inkscape:connector-curvature="0"
           d="m 42.032295,148.83784 v 4.7625 m -2.38125,-2.38125 h 4.7625"
           style="fill:none;stroke:#0000ff;stroke-width:0.26458332"
           id="path838-2" />
        <path
           inkscape:connector-curvature="0"
           d="m 48.911461,148.83784 v 4.7625 m -2.38125,-2.38125 h 4.7625"
           style="fill:none;stroke:#0000ff;stroke-width:0.26458332"
           id="path840-7" />
      </g>
      <path
         sodipodi:nodetypes="ccccccccccccccccccccccccccccc"
         id="text1485"
         d="m 14.62761,149.97155 c 0.03679,0.0415 0.134473,0.13355 0.293038,0.27622 l 1.420464,1.44265 c 1.257845,1.31446 1.854202,2.07193 1.789074,2.27242 -0.06188,0.19495 -0.240244,0.36027 -0.535087,0.49594 -0.294361,0.12778 -0.559552,0.18572 -0.795577,0.17382 -0.146697,-0.007 -0.725006,-0.58334 -1.734931,-1.72787 l -1.221715,-1.42243 c -0.143971,-0.17056 -0.233856,-0.27195 -0.269646,-0.30417 -0.23262,0.24181 -0.580338,0.73927 -1.043156,1.49237 -0.452483,0.7457 -0.766701,1.33596 -0.942653,1.77076 l -0.885916,1.80928 c -0.137128,0.44468 -0.485982,0.6529 -1.0465653,0.62465 -0.295044,-0.0149 -0.4763214,-0.11115 -0.5438259,-0.28885 -0.067511,-0.1777 -0.039905,-0.45361 0.08282,-0.82771 0.2356045,-0.74871 1.3686692,-2.56534 3.3992062,-5.44989 -0.01157,-0.12734 -0.302494,-0.58963 -0.872829,-1.38688 -0.570344,-0.79724 -1.023147,-1.35088 -1.35841,-1.66092 -0.3632508,-0.33521 -0.5144464,-0.59239 -0.4535902,-0.77156 0.1371182,-0.44467 0.5695692,-0.64868 1.2973502,-0.61201 0.354048,0.0179 0.985079,0.71515 1.893096,2.09192 0.387858,0.56622 0.641906,0.91177 0.762148,1.03667 0.209382,-0.18751 0.507861,-0.53296 0.895433,-1.03634 0.388063,-0.51125 0.656436,-0.92556 0.805115,-1.2429 0.147136,-0.29364 0.379242,-0.52755 0.696316,-0.70173 0.317057,-0.17416 0.618192,-0.25406 0.903412,-0.23969 0.442557,0.0223 0.602733,0.21656 0.480531,0.58276 -0.137137,0.4447 -0.935074,1.42256 -2.393819,2.93359 -0.380462,0.39281 -0.58722,0.61611 -0.62027,0.6699"
         style="font-style:italic;font-variant:normal;font-weight:normal;font-stretch:normal;font-size:62.90097427px;line-height:125%;font-family:'Andy MT';text-align:start;writing-mode:lr-tb;text-anchor:start;fill:none;fill-opacity:1;stroke:#ff0000;stroke-width:0.2;stroke-linecap:butt;stroke-linejoin:miter;stroke-miterlimit:4;stroke-dasharray:none;stroke-opacity:1"
         inkscape:connector-curvature="0" />
    </g>
  </g>
</svg>
