<?xml version="1.0" encoding="UTF-8" standalone="no"?>
<!-- Created with Inkscape (http://www.inkscape.org/) -->

<svg
   xmlns:dc="http://purl.org/dc/elements/1.1/"
   xmlns:cc="http://creativecommons.org/ns#"
   xmlns:rdf="http://www.w3.org/1999/02/22-rdf-syntax-ns#"
   xmlns:svg="http://www.w3.org/2000/svg"
   xmlns="http://www.w3.org/2000/svg"
   xmlns:sodipodi="http://sodipodi.sourceforge.net/DTD/sodipodi-0.dtd"
   xmlns:inkscape="http://www.inkscape.org/namespaces/inkscape"
   width="200mm"
   height="200mm"
   viewBox="0 0 708.66142 708.66141"
   id="svg2"
   version="1.1"
   inkscape:version="0.92.1 r15371"
   inkscape:export-filename="/home/martin/WEBSITE/images/logoM.png"
   inkscape:export-xdpi="3.8099999"
   inkscape:export-ydpi="3.8099999"
   sodipodi:docname="favicon.svg">
  <defs
     id="defs4" />
  <sodipodi:namedview
     id="base"
     pagecolor="#ffffff"
     bordercolor="#666666"
     borderopacity="1.0"
     inkscape:pageopacity="0.0"
     inkscape:pageshadow="2"
     inkscape:zoom="0.7"
     inkscape:cx="117.51433"
     inkscape:cy="392.99827"
     inkscape:document-units="px"
     inkscape:current-layer="layer1"
     showgrid="false"
     inkscape:window-width="1366"
     inkscape:window-height="704"
     inkscape:window-x="0"
     inkscape:window-y="27"
     inkscape:window-maximized="1" />
  <metadata
     id="metadata7">
    <rdf:RDF>
      <cc:Work
         rdf:about="">
        <dc:format>image/svg+xml</dc:format>
        <dc:type
           rdf:resource="http://purl.org/dc/dcmitype/StillImage" />
        <dc:title></dc:title>
      </cc:Work>
    </rdf:RDF>
  </metadata>
  <g
     inkscape:label="Layer 1"
     inkscape:groupmode="layer"
     id="layer1"
     transform="translate(0,-343.70079)">
    <rect
       style="fill:#000000;fill-opacity:1;stroke-width:0.9375"
       id="rect814"
       width="708.66144"
       height="708.66144"
       x="-1.419747e-05"
       y="343.70078" />
    <path
       style="fill:#ffffff;fill-opacity:1"
       d="m 373.62321,879.62525 c -5.37068,-0.86994 -7.71059,-0.98421 -10.3714,-2.12652 -2.62888,-1.12758 -0.93237,-0.32458 -5.85593,-2.6257 -8.81309,-7.26227 -8.7935,-15.23081 -9.60865,-18.28151 -0.25579,-2.23112 -1.51507,-7.16646 -1.98018,-13.21743 -0.46511,-6.05097 -1.27008,-11.26406 -1.78883,-11.58466 -0.51874,-0.32061 -1.71113,1.28944 -2.64976,3.57787 -2.12107,5.17126 -9.02669,12.80026 -13.70455,15.14013 -1.93797,0.96936 -4.4263,2.50101 -5.52961,3.40364 -5.61162,4.59086 -36.33429,5.20174 -51.97532,1.03347 -24.27394,-6.4689 -55.92198,-21.82787 -70.1799,-34.05866 -3.70456,-3.17785 -8.22663,-6.70143 -10.0491,-7.83019 -1.82244,-1.12878 -5.10063,-3.73144 -7.2849,-5.78373 -2.18426,-2.05228 -6.52202,-5.84476 -9.63951,-8.42774 -11.3712,-9.42148 -34.27917,-33.63077 -42.98719,-45.4292 -2.08694,-2.82759 -4.48384,-5.58289 -5.32645,-6.12288 -0.84254,-0.54002 -3.69445,-4.58862 -6.33745,-8.9969 -2.64298,-4.40828 -6.58403,-10.04297 -8.75781,-12.5215 -2.17369,-2.47854 -5.97653,-7.85952 -8.4507,-11.95776 -2.474167,-4.09821 -6.931834,-11.15661 -9.906069,-15.68532 -2.974235,-4.52869 -6.528797,-10.42595 -7.89917,-13.10501 -1.370307,-2.67905 -5.36814,-10.36554 -8.884075,-17.08108 -3.515924,-6.71553 -6.821472,-13.65599 -7.345739,-15.42323 -0.524191,-1.76725 -1.720277,-4.9483 -2.657797,-7.06899 -15.459945,-34.96959 -21.01259,-67.0443 -14.74615,-85.18123 5.526922,-15.99674 18.759813,-20.91706 45.409107,-16.88424 10.605153,1.60487 35.666543,9.34938 41.374823,12.78568 2.1207,1.27665 6.90238,3.51912 10.62599,4.98327 3.72354,1.46415 13.26673,5.91617 21.20694,9.89338 7.94022,3.97719 18.90533,9.12758 24.3669,11.44529 5.46158,2.31773 12.76872,6.29776 16.2381,8.84451 3.46936,2.54675 6.83303,4.63044 7.4748,4.63044 0.64178,0 7.50475,3.74872 15.25104,8.33047 7.7463,4.58176 14.50674,8.34118 15.02319,8.35426 0.51643,0.0131 4.07819,2.0319 7.91498,4.48628 3.8368,2.45437 10.06551,5.90134 13.84161,7.65994 7.77199,3.61958 15.48055,7.9859 24.8594,14.08101 8.28237,5.38254 19.93396,12.35465 20.64674,12.35465 0.30484,0 3.30782,1.97824 6.67327,4.39607 9.47707,6.80861 11.50302,6.89595 21.01979,0.90637 7.02873,-4.4237 19.99395,-12.07038 33.02792,-19.47934 1.90304,-1.08175 8.66543,-4.80723 15.02751,-8.27881 6.3621,-3.47158 15.32686,-8.60328 19.9217,-11.40378 4.59483,-2.80047 16.45145,-9.28791 26.34802,-14.41654 21.37478,-11.07684 32.34278,-17.13567 62.33561,-34.43479 39.17616,-22.59582 80.90539,-42.28184 103.46423,-48.8099 31.732,-9.1826 51.31221,-3.79827 57.85836,15.91034 3.31345,9.97586 2.02952,41.00366 -2.39066,57.77324 -4.1429,15.71769 -9.08243,29.9721 -11.66262,33.65583 -1.11859,1.59702 -2.03381,3.80305 -2.03381,4.90226 0,1.09921 -0.99888,3.42469 -2.21974,5.16769 -1.22085,1.74303 -2.34711,4.04061 -2.50277,5.10576 -0.50598,3.46208 -10.11111,23.74849 -27.25425,57.56209 -0.97509,1.92332 -2.75942,4.65369 -3.96514,6.06749 -1.20573,1.41378 -3.81459,5.75157 -5.79746,9.63952 -1.98287,3.88794 -4.97012,8.85869 -6.63832,11.0461 -1.6682,2.18743 -3.03789,4.50092 -3.04372,5.14109 -0.0172,1.89485 -29.42424,41.8601 -39.33001,53.45105 -5.02521,5.88011 -12.71381,14.16135 -17.08574,18.40274 -4.37194,4.24139 -10.96026,10.66268 -14.64074,14.26953 -8.95755,8.77837 -29.73845,25.24629 -43.96457,34.83991 -11.092,7.48008 -24.38918,13.57159 -48.4098,22.17678 -16.65828,5.96771 -40.04296,7.01533 -55.05444,4.79849 z"
       id="path4186"
       inkscape:connector-curvature="0"
       sodipodi:nodetypes="ccccscssssssssscscsscsccssssssssscssssssssssssssssscsssscsssssc"
       inkscape:export-xdpi="3.8099999"
       inkscape:export-ydpi="3.8099999" />
  </g>
</svg>
