<?xml version="1.0" encoding="UTF-8" standalone="no"?>
<!-- Created with Inkscape (http://www.inkscape.org/) -->

<svg
   xmlns:dc="http://purl.org/dc/elements/1.1/"
   xmlns:cc="http://creativecommons.org/ns#"
   xmlns:rdf="http://www.w3.org/1999/02/22-rdf-syntax-ns#"
   xmlns:svg="http://www.w3.org/2000/svg"
   xmlns="http://www.w3.org/2000/svg"
   xmlns:sodipodi="http://sodipodi.sourceforge.net/DTD/sodipodi-0.dtd"
   xmlns:inkscape="http://www.inkscape.org/namespaces/inkscape"
   width="270.47675mm"
   height="230.64528mm"
   viewBox="0 0 270.47674 230.64528"
   version="1.1"
   id="svg8"
   inkscape:version="0.92.3 (2405546, 2018-03-11)"
   sodipodi:docname="download_structure.svg"
   inkscape:export-filename="/home/martin/Development/my_homepage/docs/blog/content/images/parking_in_marburg/0_data_acquisition/download_structure.png"
   inkscape:export-xdpi="200.03354"
   inkscape:export-ydpi="200.03354">
  <defs
     id="defs2">
    <marker
       inkscape:stockid="Arrow1Mend"
       orient="auto"
       refY="0"
       refX="0"
       id="Arrow1Mend"
       style="overflow:visible"
       inkscape:isstock="true">
      <path
         id="path926"
         d="M 0,0 5,-5 -12.5,0 5,5 Z"
         style="fill:#000000;fill-opacity:1;fill-rule:evenodd;stroke:#000000;stroke-width:1.00000003pt;stroke-opacity:1"
         transform="matrix(-0.4,0,0,-0.4,-4,0)"
         inkscape:connector-curvature="0" />
    </marker>
    <marker
       inkscape:stockid="Arrow1Lend"
       orient="auto"
       refY="0"
       refX="0"
       id="Arrow1Lend"
       style="overflow:visible"
       inkscape:isstock="true">
      <path
         id="path920"
         d="M 0,0 5,-5 -12.5,0 5,5 Z"
         style="fill:#000000;fill-opacity:1;fill-rule:evenodd;stroke:#000000;stroke-width:1.00000003pt;stroke-opacity:1"
         transform="matrix(-0.8,0,0,-0.8,-10,0)"
         inkscape:connector-curvature="0" />
    </marker>
    <marker
       inkscape:stockid="Arrow1Mend"
       orient="auto"
       refY="0"
       refX="0"
       id="Arrow1Mend-7"
       style="overflow:visible"
       inkscape:isstock="true">
      <path
         inkscape:connector-curvature="0"
         id="path926-5"
         d="M 0,0 5,-5 -12.5,0 5,5 Z"
         style="fill:#000000;fill-opacity:1;fill-rule:evenodd;stroke:#000000;stroke-width:1.00000003pt;stroke-opacity:1"
         transform="matrix(-0.4,0,0,-0.4,-4,0)" />
    </marker>
    <marker
       inkscape:stockid="Arrow1Mend"
       orient="auto"
       refY="0"
       refX="0"
       id="Arrow1Mend-7-9"
       style="overflow:visible"
       inkscape:isstock="true">
      <path
         inkscape:connector-curvature="0"
         id="path926-5-1"
         d="M 0,0 5,-5 -12.5,0 5,5 Z"
         style="fill:#000000;fill-opacity:1;fill-rule:evenodd;stroke:#000000;stroke-width:1.00000003pt;stroke-opacity:1"
         transform="matrix(-0.4,0,0,-0.4,-4,0)" />
    </marker>
    <marker
       inkscape:stockid="Arrow1Mend"
       orient="auto"
       refY="0"
       refX="0"
       id="Arrow1Mend-7-9-3"
       style="overflow:visible"
       inkscape:isstock="true">
      <path
         inkscape:connector-curvature="0"
         id="path926-5-1-6"
         d="M 0,0 5,-5 -12.5,0 5,5 Z"
         style="fill:#000000;fill-opacity:1;fill-rule:evenodd;stroke:#000000;stroke-width:1.00000003pt;stroke-opacity:1"
         transform="matrix(-0.4,0,0,-0.4,-4,0)" />
    </marker>
  </defs>
  <sodipodi:namedview
     id="base"
     pagecolor="#ffffff"
     bordercolor="#666666"
     borderopacity="1.0"
     inkscape:pageopacity="0.0"
     inkscape:pageshadow="2"
     inkscape:zoom="0.24748738"
     inkscape:cx="1006.1059"
     inkscape:cy="104.11884"
     inkscape:document-units="mm"
     inkscape:current-layer="layer1"
     showgrid="false"
     inkscape:window-width="1280"
     inkscape:window-height="751"
     inkscape:window-x="0"
     inkscape:window-y="25"
     inkscape:window-maximized="1" />
  <metadata
     id="metadata5">
    <rdf:RDF>
      <cc:Work
         rdf:about="">
        <dc:format>image/svg+xml</dc:format>
        <dc:type
           rdf:resource="http://purl.org/dc/dcmitype/StillImage" />
        <dc:title />
      </cc:Work>
    </rdf:RDF>
  </metadata>
  <g
     inkscape:label="Layer 1"
     inkscape:groupmode="layer"
     id="layer1"
     transform="translate(348.28256,-17.220104)">
    <rect
       style="fill:#ffffff;fill-opacity:1;stroke:none;stroke-width:2;stroke-linecap:round;stroke-miterlimit:4;stroke-dasharray:none;stroke-dashoffset:0;stroke-opacity:1"
       id="rect2359"
       width="270.47675"
       height="229.85179"
       x="-348.28256"
       y="17.720104" />
    <g
       id="g2427"
       transform="translate(-305.16274,-25.657875)">
      <rect
         y="43.377979"
         x="26.458336"
         height="133.04762"
         width="134.55951"
         id="rect852-3-6"
         style="fill:#0000cd;fill-opacity:0.33108138;stroke:#000000;stroke-width:1;stroke-linecap:round;stroke-miterlimit:4;stroke-dasharray:none;stroke-opacity:1" />
      <g
         transform="translate(-15.875,-27.970238)"
         id="g889">
        <rect
           style="fill:#c6c6c6;fill-opacity:1;stroke:none;stroke-width:0.15899999;stroke-linecap:round;stroke-miterlimit:4;stroke-dasharray:none;stroke-opacity:1"
           id="rect852"
           width="50.648811"
           height="49.892857"
           x="78.619049"
           y="139.7619" />
        <text
           xml:space="preserve"
           style="font-style:normal;font-weight:normal;font-size:10.58333302px;line-height:1.25;font-family:sans-serif;letter-spacing:0px;word-spacing:0px;fill:#000000;fill-opacity:1;stroke:none;stroke-width:0.26458332"
           x="104.42639"
           y="154.88095"
           id="text817"><tspan
             sodipodi:role="line"
             id="tspan815"
             x="104.42639"
             y="154.88095"
             style="text-align:center;text-anchor:middle;stroke-width:0.26458332">Python</tspan><tspan
             sodipodi:role="line"
             x="104.42639"
             y="168.11012"
             style="text-align:center;text-anchor:middle;stroke-width:0.26458332"
             id="tspan838">Scrapy</tspan><tspan
             sodipodi:role="line"
             x="104.42639"
             y="181.33928"
             style="text-align:center;text-anchor:middle;stroke-width:0.26458332"
             id="tspan840">scraper</tspan></text>
      </g>
      <g
         transform="rotate(-90,98.706345,118.86454)"
         id="g2025">
        <rect
           style="fill:#c6c6c6;fill-opacity:1;stroke:none;stroke-width:0.15899999;stroke-linecap:round;stroke-miterlimit:4;stroke-dasharray:none;stroke-opacity:1"
           id="rect852-3"
           width="95.25"
           height="32.505947"
           x="42.711315"
           y="191.16667" />
        <text
           xml:space="preserve"
           style="font-style:normal;font-weight:normal;font-size:10.58333302px;line-height:1.25;font-family:sans-serif;text-align:center;letter-spacing:0px;word-spacing:0px;text-anchor:middle;fill:#000000;fill-opacity:1;stroke:none;stroke-width:0.26458332"
           x="90.13736"
           y="203.72478"
           id="text844"><tspan
             sodipodi:role="line"
             id="tspan842"
             x="90.13736"
             y="203.72478"
             style="text-align:center;text-anchor:middle;stroke-width:0.26458332">Website</tspan><tspan
             sodipodi:role="line"
             x="90.13736"
             y="216.95395"
             style="text-align:center;text-anchor:middle;stroke-width:0.26458332"
             id="tspan846">pls.marburg.de</tspan></text>
      </g>
      <text
         id="text850"
         y="50.181545"
         x="27.214285"
         style="font-style:normal;font-weight:normal;font-size:10.58333302px;line-height:1.25;font-family:sans-serif;letter-spacing:0px;word-spacing:0px;fill:#000000;fill-opacity:1;stroke:none;stroke-width:0.26458332"
         xml:space="preserve"><tspan
           style="font-size:7.05555534px;stroke-width:0.26458332"
           y="50.181545"
           x="27.214285"
           id="tspan848"
           sodipodi:role="line">Docker container</tspan></text>
      <path
         sodipodi:nodetypes="csc"
         inkscape:connector-curvature="0"
         id="path899"
         d="M 51.40476,130.69048 C 8.5232197,87.157874 99.459297,21.343708 131.53571,69.458334 c 9.86524,14.797857 0.33286,34.985876 -6.94901,49.549616"
         style="fill:none;stroke:#000000;stroke-width:1;stroke-linecap:butt;stroke-linejoin:miter;stroke-miterlimit:4;stroke-dasharray:none;stroke-opacity:1" />
      <text
         id="text911"
         y="82.831909"
         x="114.77454"
         style="font-style:normal;font-weight:normal;font-size:10.58333302px;line-height:1.25;font-family:sans-serif;text-align:center;letter-spacing:0px;word-spacing:0px;text-anchor:middle;fill:#000000;fill-opacity:1;stroke:none;stroke-width:0.26458332"
         xml:space="preserve"><tspan
           style="font-size:8.81944466px;text-align:center;text-anchor:middle;stroke-width:0.26458332"
           y="82.831909"
           x="114.77454"
           id="tspan909"
           sodipodi:role="line">every</tspan><tspan
           id="tspan913"
           style="font-size:8.81944466px;text-align:center;text-anchor:middle;stroke-width:0.26458332"
           y="96.061073"
           x="114.77454"
           sodipodi:role="line">3min</tspan></text>
      <path
         sodipodi:nodetypes="cc"
         inkscape:connector-curvature="0"
         id="path915"
         d="M 168.58278,145.91562 H 117.80157"
         style="fill:none;stroke:#000000;stroke-width:1;stroke-linecap:butt;stroke-linejoin:miter;stroke-miterlimit:4;stroke-dasharray:none;stroke-opacity:1;marker-end:url(#Arrow1Mend)" />
      <path
         sodipodi:nodetypes="cc"
         inkscape:connector-curvature="0"
         id="path915-3"
         d="M 116.68259,131.21579 H 167.4638"
         style="fill:none;stroke:#000000;stroke-width:1;stroke-linecap:butt;stroke-linejoin:miter;stroke-miterlimit:4;stroke-dasharray:none;stroke-opacity:1;marker-end:url(#Arrow1Mend-7)" />
      <path
         sodipodi:nodetypes="cc"
         inkscape:connector-curvature="0"
         id="path915-3-2"
         d="m 39.469019,150.44481 v 50.62926"
         style="fill:none;stroke:#000000;stroke-width:1;stroke-linecap:butt;stroke-linejoin:miter;stroke-miterlimit:4;stroke-dasharray:none;stroke-opacity:1;marker-end:url(#Arrow1Mend-7-9)" />
      <path
         sodipodi:nodetypes="cc"
         inkscape:connector-curvature="0"
         id="path915-3-2-7"
         d="M 66.526357,221.03663 H 113.83306"
         style="fill:none;stroke:#000000;stroke-width:1;stroke-linecap:butt;stroke-linejoin:miter;stroke-miterlimit:4;stroke-dasharray:none;stroke-opacity:1;marker-end:url(#Arrow1Mend-7-9-3)" />
      <g
         transform="matrix(0.75600495,0,0,0.75600495,22.813868,54.046882)"
         id="g2343">
        <path
           inkscape:connector-curvature="0"
           id="path2266"
           style="font-style:normal;font-weight:normal;font-size:8.81944466px;line-height:1.25;font-family:sans-serif;letter-spacing:0px;word-spacing:0px;fill:#000000;fill-opacity:1;stroke:none;stroke-width:0.26458332"
           d="m 67.048293,201.46023 v 2.55798 h -0.796678 v -6.65764 h 0.796678 v 0.73208 q 0.24977,-0.43064 0.62873,-0.63734 0.383267,-0.21102 0.912951,-0.21102 0.878499,0 1.425408,0.69764 0.551215,0.69763 0.551215,1.83451 0,1.13688 -0.551215,1.83451 -0.546909,0.69764 -1.425408,0.69764 -0.529684,0 -0.912951,-0.20671 -0.37896,-0.21101 -0.62873,-0.64165 z m 2.695788,-1.68379 q 0,-0.87419 -0.361735,-1.36943 -0.357429,-0.49953 -0.986159,-0.49953 -0.62873,0 -0.990465,0.49953 -0.357429,0.49524 -0.357429,1.36943 0,0.87419 0.357429,1.37373 0.361735,0.49523 0.990465,0.49523 0.62873,0 0.986159,-0.49523 0.361735,-0.49954 0.361735,-1.37373 z" />
        <path
           inkscape:connector-curvature="0"
           id="path2268"
           style="font-style:normal;font-weight:normal;font-size:8.81944466px;line-height:1.25;font-family:sans-serif;letter-spacing:0px;word-spacing:0px;fill:#000000;fill-opacity:1;stroke:none;stroke-width:0.26458332"
           d="m 74.674874,198.10126 q -0.133498,-0.0775 -0.292833,-0.11196 -0.15503,-0.0388 -0.34451,-0.0388 -0.671794,0 -1.033529,0.43925 -0.357428,0.43494 -0.357428,1.25315 v 2.54076 h -0.796679 v -4.82313 h 0.796679 v 0.74931 q 0.249769,-0.43925 0.650261,-0.65027 0.400493,-0.21532 0.97324,-0.21532 0.08182,0 0.180867,0.0129 0.09905,0.009 0.219625,0.0302 z" />
        <path
           inkscape:connector-curvature="0"
           id="path2270"
           style="font-style:normal;font-weight:normal;font-size:8.81944466px;line-height:1.25;font-family:sans-serif;letter-spacing:0px;word-spacing:0px;fill:#000000;fill-opacity:1;stroke:none;stroke-width:0.26458332"
           d="m 77.1941,197.91609 q -0.637343,0 -1.007691,0.49954 -0.370347,0.49523 -0.370347,1.36081 0,0.86558 0.366041,1.36512 0.370348,0.49523 1.011997,0.49523 0.633036,0 1.003384,-0.49954 0.370348,-0.49954 0.370348,-1.36081 0,-0.85697 -0.370348,-1.35651 -0.370348,-0.50384 -1.003384,-0.50384 z m 0,-0.6718 q 1.033528,0 1.623501,0.6718 0.589973,0.67179 0.589973,1.86035 0,1.18425 -0.589973,1.86035 -0.589973,0.6718 -1.623501,0.6718 -1.037835,0 -1.627808,-0.6718 -0.585666,-0.6761 -0.585666,-1.86035 0,-1.18856 0.585666,-1.86035 0.589973,-0.6718 1.627808,-0.6718 z" />
        <path
           inkscape:connector-curvature="0"
           id="path2272"
           style="font-style:normal;font-weight:normal;font-size:8.81944466px;line-height:1.25;font-family:sans-serif;letter-spacing:0px;word-spacing:0px;fill:#000000;fill-opacity:1;stroke:none;stroke-width:0.26458332"
           d="m 84.187643,197.54574 v 0.7407 q -0.335897,-0.18518 -0.6761,-0.27561 -0.335897,-0.0947 -0.680406,-0.0947 -0.77084,0 -1.197171,0.49092 -0.426331,0.48662 -0.426331,1.36943 0,0.88281 0.426331,1.37373 0.426331,0.48662 1.197171,0.48662 0.344509,0 0.680406,-0.0904 0.340203,-0.0947 0.6761,-0.27992 v 0.73209 q -0.33159,0.15503 -0.689019,0.23254 -0.353122,0.0775 -0.753615,0.0775 -1.089511,0 -1.73116,-0.68472 -0.641649,-0.68471 -0.641649,-1.84743 0,-1.17995 0.645955,-1.85605 0.650262,-0.6761 1.778531,-0.6761 0.366041,0 0.714857,0.0775 0.348816,0.0732 0.6761,0.22393 z" />
        <path
           inkscape:connector-curvature="0"
           id="path2274"
           style="font-style:normal;font-weight:normal;font-size:8.81944466px;line-height:1.25;font-family:sans-serif;letter-spacing:0px;word-spacing:0px;fill:#000000;fill-opacity:1;stroke:none;stroke-width:0.26458332"
           d="m 89.699797,199.57404 v 0.38757 h -3.643188 q 0.05168,0.81821 0.490926,1.24885 0.443556,0.42633 1.231621,0.42633 0.456476,0 0.882806,-0.11196 0.430637,-0.11197 0.852661,-0.3359 v 0.74931 q -0.42633,0.18087 -0.874193,0.27561 -0.447862,0.0947 -0.908644,0.0947 -1.154107,0 -1.830207,-0.6718 -0.671793,-0.67179 -0.671793,-1.81729 0,-1.18425 0.637342,-1.87757 0.641649,-0.69764 1.726855,-0.69764 0.973239,0 1.537373,0.62873 0.568441,0.62443 0.568441,1.70102 z m -0.792372,-0.23254 q -0.0086,-0.65027 -0.366041,-1.03784 -0.353122,-0.38757 -0.938789,-0.38757 -0.663181,0 -1.063673,0.37465 -0.396186,0.37466 -0.456475,1.05506 z" />
        <path
           inkscape:connector-curvature="0"
           id="path2276"
           style="font-style:normal;font-weight:normal;font-size:8.81944466px;line-height:1.25;font-family:sans-serif;letter-spacing:0px;word-spacing:0px;fill:#000000;fill-opacity:1;stroke:none;stroke-width:0.26458332"
           d="m 94.075068,197.50268 v 0.74931 q -0.335896,-0.17226 -0.697631,-0.25839 -0.361735,-0.0861 -0.749309,-0.0861 -0.589972,0 -0.887112,0.18086 -0.292833,0.18087 -0.292833,0.54261 0,0.2756 0.211012,0.43494 0.211012,0.15503 0.848355,0.29714 l 0.271301,0.0603 q 0.844049,0.18087 1.197171,0.51246 0.357429,0.32728 0.357429,0.91725 0,0.6718 -0.53399,1.06368 -0.529684,0.39188 -1.459859,0.39188 -0.387574,0 -0.809598,-0.0775 -0.417718,-0.0732 -0.882806,-0.22393 v -0.81821 q 0.43925,0.22824 0.865581,0.34451 0.42633,0.11196 0.844048,0.11196 0.559828,0 0.861274,-0.18948 0.301446,-0.19378 0.301446,-0.5426 0,-0.32298 -0.219625,-0.49523 -0.215319,-0.17226 -0.951708,-0.33159 l -0.275607,-0.0646 q -0.73639,-0.15503 -1.063674,-0.4737 -0.327284,-0.32298 -0.327284,-0.8828 0,-0.68041 0.482314,-1.05076 0.482313,-0.37035 1.369425,-0.37035 0.43925,0 0.826823,0.0646 0.387573,0.0646 0.714857,0.19379 z" />
        <path
           inkscape:connector-curvature="0"
           id="path2278"
           style="font-style:normal;font-weight:normal;font-size:8.81944466px;line-height:1.25;font-family:sans-serif;letter-spacing:0px;word-spacing:0px;fill:#000000;fill-opacity:1;stroke:none;stroke-width:0.26458332"
           d="m 98.674272,197.50268 v 0.74931 q -0.335897,-0.17226 -0.697632,-0.25839 -0.361735,-0.0861 -0.749309,-0.0861 -0.589972,0 -0.887112,0.18086 -0.292833,0.18087 -0.292833,0.54261 0,0.2756 0.211012,0.43494 0.211012,0.15503 0.848355,0.29714 l 0.271301,0.0603 q 0.844049,0.18087 1.197171,0.51246 0.357429,0.32728 0.357429,0.91725 0,0.6718 -0.53399,1.06368 -0.529684,0.39188 -1.459859,0.39188 -0.387574,0 -0.809598,-0.0775 -0.417718,-0.0732 -0.882806,-0.22393 v -0.81821 q 0.43925,0.22824 0.865581,0.34451 0.42633,0.11196 0.844048,0.11196 0.559828,0 0.861274,-0.18948 0.301446,-0.19378 0.301446,-0.5426 0,-0.32298 -0.219625,-0.49523 -0.215318,-0.17226 -0.951708,-0.33159 l -0.275607,-0.0646 q -0.736389,-0.15503 -1.063673,-0.4737 -0.327285,-0.32298 -0.327285,-0.8828 0,-0.68041 0.482314,-1.05076 0.482313,-0.37035 1.369425,-0.37035 0.43925,0 0.826823,0.0646 0.387573,0.0646 0.714858,0.19379 z" />
        <path
           inkscape:connector-curvature="0"
           id="path2280"
           style="font-style:normal;font-weight:normal;font-size:8.81944466px;line-height:1.25;font-family:sans-serif;letter-spacing:0px;word-spacing:0px;fill:#000000;fill-opacity:1;stroke:none;stroke-width:0.26458332"
           d="m 100.19872,197.36057 h 0.79238 v 4.82313 h -0.79238 z m 0,-1.87758 h 0.79238 v 1.00338 h -0.79238 z" />
        <path
           inkscape:connector-curvature="0"
           id="path2282"
           style="font-style:normal;font-weight:normal;font-size:8.81944466px;line-height:1.25;font-family:sans-serif;letter-spacing:0px;word-spacing:0px;fill:#000000;fill-opacity:1;stroke:none;stroke-width:0.26458332"
           d="m 106.65397,199.27259 v 2.91111 h -0.79237 v -2.88527 q 0,-0.68471 -0.26699,-1.02491 -0.267,-0.34021 -0.80099,-0.34021 -0.64165,0 -1.012,0.40911 -0.37034,0.4091 -0.37034,1.11535 v 2.72593 h -0.79668 v -4.82313 h 0.79668 v 0.74931 q 0.28422,-0.43495 0.66748,-0.65027 0.38758,-0.21532 0.89142,-0.21532 0.83113,0 1.25746,0.51677 0.42633,0.51246 0.42633,1.51153 z" />
        <path
           inkscape:connector-curvature="0"
           id="path2284"
           style="font-style:normal;font-weight:normal;font-size:8.81944466px;line-height:1.25;font-family:sans-serif;letter-spacing:0px;word-spacing:0px;fill:#000000;fill-opacity:1;stroke:none;stroke-width:0.26458332"
           d="m 111.41682,199.71615 q 0,-0.86127 -0.35743,-1.33497 -0.35312,-0.4737 -0.99477,-0.4737 -0.63734,0 -0.99477,0.4737 -0.35312,0.4737 -0.35312,1.33497 0,0.85697 0.35312,1.33067 0.35743,0.4737 0.99477,0.4737 0.64165,0 0.99477,-0.4737 0.35743,-0.4737 0.35743,-1.33067 z m 0.79237,1.86897 q 0,1.23162 -0.54691,1.8302 -0.54691,0.60289 -1.67518,0.60289 -0.41771,0 -0.78806,-0.0646 -0.37035,-0.0603 -0.71916,-0.18948 v -0.77084 q 0.34881,0.18948 0.68901,0.27991 0.34021,0.0904 0.69333,0.0904 0.77945,0 1.16703,-0.40911 0.38757,-0.4048 0.38757,-1.22731 v -0.39188 q -0.24546,0.42633 -0.62873,0.63734 -0.38327,0.21101 -0.91726,0.21101 -0.88711,0 -1.42971,-0.6761 -0.5426,-0.6761 -0.5426,-1.79145 0,-1.11966 0.5426,-1.79576 0.5426,-0.6761 1.42971,-0.6761 0.53399,0 0.91726,0.21102 0.38327,0.21101 0.62873,0.63734 v -0.73208 h 0.79237 z" />
        <path
           inkscape:connector-curvature="0"
           id="path2286"
           style="font-style:normal;font-weight:normal;font-size:8.81944466px;line-height:1.25;font-family:sans-serif;letter-spacing:0px;word-spacing:0px;fill:#000000;fill-opacity:1;stroke:none;stroke-width:0.26458332"
           d="m 67.595202,208.77983 q -0.391879,0.34882 -0.577053,0.69763 -0.180868,0.34451 -0.180868,0.72347 0,0.62873 0.456475,1.04645 0.456475,0.41772 1.145495,0.41772 0.409105,0 0.766533,-0.1335 0.357429,-0.1378 0.671794,-0.41341 z m 0.607198,-0.48231 2.187636,2.23931 q 0.254076,-0.38327 0.396186,-0.81821 0.14211,-0.43925 0.167948,-0.93018 h 0.800985 q -0.05168,0.56845 -0.275608,1.12397 -0.223931,0.55552 -0.624423,1.09812 l 1.201477,1.22732 h -1.085205 l -0.615811,-0.63304 q -0.447862,0.38327 -0.938789,0.57275 -0.490926,0.18517 -1.05506,0.18517 -1.037835,0 -1.69671,-0.58997 -0.658874,-0.59428 -0.658874,-1.52015 0,-0.55121 0.288527,-1.03353 0.288526,-0.48662 0.86558,-0.91295 -0.206706,-0.2713 -0.314365,-0.53829 -0.107659,-0.27131 -0.107659,-0.52969 0,-0.69763 0.478007,-1.11965 0.478007,-0.42633 1.270379,-0.42633 0.357428,0 0.710551,0.0775 0.357428,0.0775 0.72347,0.23254 v 0.78376 q -0.374654,-0.2024 -0.714858,-0.30575 -0.340203,-0.10766 -0.633036,-0.10766 -0.452169,0 -0.736389,0.24116 -0.279914,0.23685 -0.279914,0.61581 0,0.21962 0.124885,0.44356 0.129191,0.21962 0.52107,0.62442 z" />
        <path
           inkscape:connector-curvature="0"
           id="path2288"
           style="font-style:normal;font-weight:normal;font-size:8.81944466px;line-height:1.25;font-family:sans-serif;letter-spacing:0px;word-spacing:0px;fill:#000000;fill-opacity:1;stroke:none;stroke-width:0.26458332"
           d="m 79.433412,207.59989 v 0.74069 q -0.335897,-0.18517 -0.6761,-0.27561 -0.335897,-0.0947 -0.680407,-0.0947 -0.77084,0 -1.19717,0.49093 -0.426331,0.48662 -0.426331,1.36943 0,0.8828 0.426331,1.37373 0.42633,0.48662 1.19717,0.48662 0.34451,0 0.680407,-0.0904 0.340203,-0.0947 0.6761,-0.27991 v 0.73208 q -0.331591,0.15503 -0.689019,0.23255 -0.353123,0.0775 -0.753615,0.0775 -1.089512,0 -1.731161,-0.68471 -0.641649,-0.68471 -0.641649,-1.84743 0,-1.17995 0.645956,-1.85605 0.650262,-0.6761 1.77853,-0.6761 0.366042,0 0.714858,0.0775 0.348816,0.0732 0.6761,0.22393 z" />
        <path
           inkscape:connector-curvature="0"
           id="path2290"
           style="font-style:normal;font-weight:normal;font-size:8.81944466px;line-height:1.25;font-family:sans-serif;letter-spacing:0px;word-spacing:0px;fill:#000000;fill-opacity:1;stroke:none;stroke-width:0.26458332"
           d="m 80.820063,205.53714 h 0.792372 v 6.70071 h -0.792372 z" />
        <path
           inkscape:connector-curvature="0"
           id="path2292"
           style="font-style:normal;font-weight:normal;font-size:8.81944466px;line-height:1.25;font-family:sans-serif;letter-spacing:0px;word-spacing:0px;fill:#000000;fill-opacity:1;stroke:none;stroke-width:0.26458332"
           d="m 87.391583,209.62819 v 0.38757 h -3.643189 q 0.05168,0.81821 0.490927,1.24885 0.443556,0.42633 1.231621,0.42633 0.456475,0 0.882806,-0.11197 0.430637,-0.11196 0.852661,-0.33589 v 0.7493 q -0.42633,0.18087 -0.874193,0.27561 -0.447862,0.0947 -0.908644,0.0947 -1.154107,0 -1.830207,-0.67179 -0.671793,-0.6718 -0.671793,-1.81729 0,-1.18425 0.637342,-1.87758 0.641649,-0.69763 1.726854,-0.69763 0.97324,0 1.537374,0.62873 0.568441,0.62442 0.568441,1.70102 z m -0.792372,-0.23255 q -0.0086,-0.65026 -0.366041,-1.03783 -0.353123,-0.38758 -0.938789,-0.38758 -0.663181,0 -1.063673,0.37466 -0.396186,0.37465 -0.456475,1.05506 z" />
        <path
           inkscape:connector-curvature="0"
           id="path2294"
           style="font-style:normal;font-weight:normal;font-size:8.81944466px;line-height:1.25;font-family:sans-serif;letter-spacing:0px;word-spacing:0px;fill:#000000;fill-opacity:1;stroke:none;stroke-width:0.26458332"
           d="m 90.884049,209.81336 q -0.960321,0 -1.330669,0.21963 -0.370347,0.21962 -0.370347,0.7493 0,0.42203 0.275607,0.6718 0.279914,0.24546 0.757921,0.24546 0.658875,0 1.055061,-0.46509 0.400492,-0.46939 0.400492,-1.24454 v -0.17656 z m 1.580437,-0.32728 v 2.75177 h -0.792372 v -0.73209 q -0.271301,0.43925 -0.6761,0.65027 -0.404799,0.2067 -0.990465,0.2067 -0.740695,0 -1.179945,-0.41341 -0.434943,-0.41772 -0.434943,-1.11535 0,-0.8139 0.542602,-1.22731 0.546909,-0.41342 1.627808,-0.41342 h 1.111043 v -0.0775 q 0,-0.54691 -0.361735,-0.84405 -0.357429,-0.30145 -1.00769,-0.30145 -0.413412,0 -0.805291,0.0991 -0.39188,0.099 -0.753615,0.29714 v -0.73208 q 0.434943,-0.16795 0.844048,-0.24977 0.409105,-0.0861 0.796679,-0.0861 1.046447,0 1.563212,0.5426 0.516764,0.54261 0.516764,1.64504 z" />
        <path
           inkscape:connector-curvature="0"
           id="path2296"
           style="font-style:normal;font-weight:normal;font-size:8.81944466px;line-height:1.25;font-family:sans-serif;letter-spacing:0px;word-spacing:0px;fill:#000000;fill-opacity:1;stroke:none;stroke-width:0.26458332"
           d="m 98.110137,209.32674 v 2.91111 h -0.792372 v -2.88527 q 0,-0.68471 -0.266995,-1.02492 -0.266995,-0.3402 -0.800985,-0.3402 -0.641649,0 -1.011997,0.40911 -0.370348,0.4091 -0.370348,1.11534 v 2.72594 h -0.796678 v -4.82314 h 0.796678 v 0.74931 q 0.284221,-0.43494 0.667488,-0.65026 0.387573,-0.21532 0.891418,-0.21532 0.831129,0 1.25746,0.51677 0.426331,0.51245 0.426331,1.51153 z" />
        <path
           inkscape:connector-curvature="0"
           id="path2298"
           style="font-style:normal;font-weight:normal;font-size:8.81944466px;line-height:1.25;font-family:sans-serif;letter-spacing:0px;word-spacing:0px;fill:#000000;fill-opacity:1;stroke:none;stroke-width:0.26458332"
           d="m 99.699187,207.41471 h 0.792373 v 4.82314 h -0.792373 z m 0,-1.87757 h 0.792373 v 1.00338 h -0.792373 z" />
        <path
           inkscape:connector-curvature="0"
           id="path2300"
           style="font-style:normal;font-weight:normal;font-size:8.81944466px;line-height:1.25;font-family:sans-serif;letter-spacing:0px;word-spacing:0px;fill:#000000;fill-opacity:1;stroke:none;stroke-width:0.26458332"
           d="m 106.15443,209.32674 v 2.91111 h -0.79237 v -2.88527 q 0,-0.68471 -0.26699,-1.02492 -0.267,-0.3402 -0.80099,-0.3402 -0.64165,0 -1.01199,0.40911 -0.37035,0.4091 -0.37035,1.11534 v 2.72594 h -0.79668 v -4.82314 h 0.79668 v 0.74931 q 0.28422,-0.43494 0.66749,-0.65026 0.38757,-0.21532 0.89141,-0.21532 0.83113,0 1.25746,0.51677 0.42633,0.51245 0.42633,1.51153 z" />
        <path
           inkscape:connector-curvature="0"
           id="path2302"
           style="font-style:normal;font-weight:normal;font-size:8.81944466px;line-height:1.25;font-family:sans-serif;letter-spacing:0px;word-spacing:0px;fill:#000000;fill-opacity:1;stroke:none;stroke-width:0.26458332"
           d="m 110.91728,209.7703 q 0,-0.86128 -0.35743,-1.33498 -0.35312,-0.4737 -0.99477,-0.4737 -0.63734,0 -0.99477,0.4737 -0.35312,0.4737 -0.35312,1.33498 0,0.85696 0.35312,1.33067 0.35743,0.4737 0.99477,0.4737 0.64165,0 0.99477,-0.4737 0.35743,-0.47371 0.35743,-1.33067 z m 0.79237,1.86896 q 0,1.23162 -0.54691,1.83021 -0.5469,0.60289 -1.67517,0.60289 -0.41772,0 -0.78807,-0.0646 -0.37035,-0.0603 -0.71916,-0.18948 v -0.77084 q 0.34881,0.18948 0.68902,0.27992 0.3402,0.0904 0.69332,0.0904 0.77945,0 1.16703,-0.4091 0.38757,-0.4048 0.38757,-1.22732 v -0.39188 q -0.24546,0.42633 -0.62873,0.63734 -0.38327,0.21102 -0.91726,0.21102 -0.88711,0 -1.42971,-0.6761 -0.5426,-0.6761 -0.5426,-1.79145 0,-1.11966 0.5426,-1.79576 0.5426,-0.6761 1.42971,-0.6761 0.53399,0 0.91726,0.21101 0.38327,0.21102 0.62873,0.63735 v -0.73209 h 0.79237 z" />
      </g>
      <g
         style="stroke-width:1.39200008;stroke-miterlimit:4;stroke-dasharray:none"
         transform="matrix(0.57471261,0,0,0.57471261,240.69685,146.90588)"
         id="g999">
        <rect
           style="fill:#ffffff;fill-opacity:1;stroke:#000000;stroke-width:1.39200008;stroke-linecap:round;stroke-miterlimit:4;stroke-dasharray:none;stroke-opacity:1"
           id="rect968"
           width="59.868374"
           height="46.504894"
           x="-202.88795"
           y="103.40133" />
        <path
           style="fill:none;stroke:#000000;stroke-width:1.39200008;stroke-linecap:butt;stroke-linejoin:miter;stroke-miterlimit:4;stroke-dasharray:none;stroke-opacity:1"
           d="m -183.91182,103.93586 v 45.43582"
           id="path970"
           inkscape:connector-curvature="0" />
        <path
           style="fill:none;stroke:#000000;stroke-width:1.39200008;stroke-linecap:butt;stroke-linejoin:miter;stroke-miterlimit:4;stroke-dasharray:none;stroke-opacity:1"
           d="m -202.88795,115.96299 h 59.06656"
           id="path972"
           inkscape:connector-curvature="0" />
        <path
           style="fill:none;stroke:#000000;stroke-width:1.39200008;stroke-linecap:butt;stroke-linejoin:miter;stroke-miterlimit:4;stroke-dasharray:none;stroke-opacity:1"
           d="m -203.15522,126.65377 h 59.86837"
           id="path974"
           inkscape:connector-curvature="0" />
        <path
           style="fill:none;stroke:#000000;stroke-width:1.39200008;stroke-linecap:butt;stroke-linejoin:miter;stroke-miterlimit:4;stroke-dasharray:none;stroke-opacity:1"
           d="m -202.35341,138.41363 h 59.06656"
           id="path976"
           inkscape:connector-curvature="0" />
        <path
           style="fill:none;stroke:#000000;stroke-width:1.39200008;stroke-linecap:butt;stroke-linejoin:miter;stroke-miterlimit:4;stroke-dasharray:none;stroke-opacity:1"
           d="m -164.66841,103.93586 v 45.43583"
           id="path970-5"
           inkscape:connector-curvature="0" />
      </g>
      <text
         id="text863-3"
         y="247.07259"
         x="119.3079"
         style="font-style:normal;font-weight:normal;font-size:10.58333302px;line-height:1.25;font-family:sans-serif;letter-spacing:0px;word-spacing:0px;fill:#000000;fill-opacity:1;stroke:none;stroke-width:0.26458332"
         xml:space="preserve"><tspan
           style="stroke-width:0.26458332"
           y="247.07259"
           x="119.3079"
           id="tspan861-5"
           sodipodi:role="line">Data for</tspan><tspan
           id="tspan1019"
           style="stroke-width:0.26458332"
           y="260.30176"
           x="119.3079"
           sodipodi:role="line">analysis</tspan></text>
      <path
         inkscape:connector-curvature="0"
         id="path905"
         d="m 47.650059,131.43305 c 7.607712,3.77311 6.021735,0.58772 4.556686,-5.33422"
         style="fill:none;stroke:#000000;stroke-width:1;stroke-linecap:butt;stroke-linejoin:miter;stroke-miterlimit:4;stroke-dasharray:none;stroke-opacity:1" />
      <text
         id="text2240"
         y="189.69215"
         x="42.231232"
         style="font-style:normal;font-weight:normal;font-size:10.58333302px;line-height:1.25;font-family:sans-serif;letter-spacing:0px;word-spacing:0px;fill:#000000;fill-opacity:1;stroke:none;stroke-width:0.26458332"
         xml:space="preserve"><tspan
           style="font-size:7.05555534px;stroke-width:0.26458332"
           y="189.69215"
           x="42.231232"
           id="tspan2238"
           sodipodi:role="line">Stores</tspan></text>
      <g
         transform="translate(237.13925,158.74153)"
         id="g1633">
        <ellipse
           style="fill:#ffffff;fill-opacity:1;stroke:#000000;stroke-width:1;stroke-linecap:round;stroke-miterlimit:4;stroke-dasharray:none;stroke-opacity:1"
           id="path1600-5"
           cx="-196.62271"
           cy="68.752449"
           rx="17.31181"
           ry="4.863626" />
        <ellipse
           style="fill:#ffffff;fill-opacity:1;stroke:#000000;stroke-width:1;stroke-linecap:round;stroke-miterlimit:4;stroke-dasharray:none;stroke-opacity:1"
           id="path1600-6"
           cx="-196.62271"
           cy="63.553398"
           rx="17.31181"
           ry="4.863626" />
        <ellipse
           style="fill:#ffffff;fill-opacity:1;stroke:#000000;stroke-width:1;stroke-linecap:round;stroke-miterlimit:4;stroke-dasharray:none;stroke-opacity:1"
           id="path1600-2"
           cx="-196.62271"
           cy="58.354351"
           rx="17.31181"
           ry="4.863626" />
        <ellipse
           style="fill:#ffffff;fill-opacity:1;stroke:#000000;stroke-width:1;stroke-linecap:round;stroke-miterlimit:4;stroke-dasharray:none;stroke-opacity:1"
           id="path1600"
           cx="-196.62271"
           cy="53.1553"
           rx="17.311808"
           ry="4.863626" />
      </g>
      <g
         transform="translate(0,3.1750001)"
         id="g1868">
        <text
           xml:space="preserve"
           style="font-style:normal;font-weight:normal;font-size:10.58333302px;line-height:1.25;font-family:sans-serif;letter-spacing:0px;word-spacing:0px;fill:#000000;fill-opacity:1;stroke:none;stroke-width:0.26458332"
           x="14.680879"
           y="245.0376"
           id="text2236"><tspan
             sodipodi:role="line"
             id="tspan2234"
             x="14.680879"
             y="245.0376"
             style="stroke-width:0.26458332">Database</tspan></text>
        <text
           xml:space="preserve"
           style="font-style:normal;font-weight:normal;font-size:10.58333302px;line-height:1.25;font-family:sans-serif;letter-spacing:0px;word-spacing:0px;fill:#000000;fill-opacity:1;stroke:none;stroke-width:0.26458332"
           x="16.254107"
           y="258.0383"
           id="text863"><tspan
             sodipodi:role="line"
             id="tspan861"
             x="16.254107"
             y="258.0383"
             style="stroke-width:0.26458332">raw data</tspan></text>
      </g>
      <rect
         y="193.14825"
         x="112.0123"
         height="79.375"
         width="60.098213"
         id="rect2357"
         style="fill:none;fill-opacity:1;stroke:#00bf00;stroke-width:2;stroke-linecap:round;stroke-miterlimit:4;stroke-dasharray:6.00000017, 6.00000017;stroke-dashoffset:0;stroke-opacity:1" />
    </g>
  </g>
</svg>
