<?xml version="1.0" encoding="UTF-8" standalone="no"?>
<!-- Created with Inkscape (http://www.inkscape.org/) -->

<svg
   xmlns:dc="http://purl.org/dc/elements/1.1/"
   xmlns:cc="http://creativecommons.org/ns#"
   xmlns:rdf="http://www.w3.org/1999/02/22-rdf-syntax-ns#"
   xmlns:svg="http://www.w3.org/2000/svg"
   xmlns="http://www.w3.org/2000/svg"
   xmlns:sodipodi="http://sodipodi.sourceforge.net/DTD/sodipodi-0.dtd"
   xmlns:inkscape="http://www.inkscape.org/namespaces/inkscape"
   width="180.45262mm"
   height="39.963322mm"
   viewBox="0 0 180.45262 39.963321"
   version="1.1"
   id="svg8"
   inkscape:version="0.92.5 (2060ec1f9f, 2020-04-08)"
   sodipodi:docname="0_station_and_bike_nrs.svg"
   inkscape:export-filename="/home/martin/Development/nextbikemr/notebooks/img/2_for_city/0_station_and_bike_nrs.png"
   inkscape:export-xdpi="99.786499"
   inkscape:export-ydpi="99.786499">
  <defs
     id="defs2" />
  <sodipodi:namedview
     id="base"
     pagecolor="#ffffff"
     bordercolor="#666666"
     borderopacity="1.0"
     inkscape:pageopacity="0.0"
     inkscape:pageshadow="2"
     inkscape:zoom="0.98994949"
     inkscape:cx="287.78126"
     inkscape:cy="-106.78168"
     inkscape:document-units="mm"
     inkscape:current-layer="layer1"
     showgrid="false"
     inkscape:window-width="1920"
     inkscape:window-height="1176"
     inkscape:window-x="1920"
     inkscape:window-y="0"
     inkscape:window-maximized="1" />
  <metadata
     id="metadata5">
    <rdf:RDF>
      <cc:Work
         rdf:about="">
        <dc:format>image/svg+xml</dc:format>
        <dc:type
           rdf:resource="http://purl.org/dc/dcmitype/StillImage" />
        <dc:title />
      </cc:Work>
    </rdf:RDF>
  </metadata>
  <g
     inkscape:label="Layer 1"
     inkscape:groupmode="layer"
     id="layer1"
     transform="translate(-22.469019,-182.99205)">
    <path
       style="fill:#000000;stroke-width:0.07813418"
       d="m 26.656728,222.85886 c -0.103291,-0.0531 -0.258985,-0.1924 -0.345986,-0.30959 -0.180495,-0.24314 -0.190414,-0.16256 0.42103,-3.42017 0.367323,-1.957 0.364843,-1.95335 1.328196,-1.95335 h 0.620716 V 207.1018 197.02786 l -2.246358,-0.0249 c -2.104476,-0.0233 -2.269301,-0.0355 -2.609614,-0.19282 -0.46433,-0.21465 -0.973126,-0.72345 -1.18777,-1.18777 -0.166564,-0.36032 -0.167923,-0.40602 -0.167923,-5.63732 0,-5.2313 0.0014,-5.277 0.167923,-5.63731 0.214644,-0.46433 0.72344,-0.97313 1.18777,-1.18777 0.360314,-0.16656 0.406011,-0.16792 5.637313,-0.16792 5.231306,0 5.277003,0.001 5.637317,0.16792 0.46433,0.21465 0.973123,0.72344 1.18777,1.18777 0.166563,0.36031 0.167923,0.40601 0.167923,5.63731 0,5.2313 -0.0014,5.277 -0.167923,5.63732 -0.214647,0.46433 -0.72344,0.97312 -1.18777,1.18777 -0.340314,0.15732 -0.505139,0.16949 -2.609618,0.19282 l -2.246355,0.0249 v 10.07394 10.07395 h 0.620717 c 0.96335,0 0.960869,-0.004 1.328196,1.95335 0.611444,3.25761 0.601524,3.17703 0.42103,3.42017 -0.296953,0.4 -0.344345,0.4061 -3.151287,0.4061 -1.923887,0 -2.667261,-0.0256 -2.805297,-0.0965 z m 4.367371,-1.4834 c -2.64e-4,-0.0107 -0.105542,-0.5821 -0.233792,-1.26968 -0.128247,-0.68758 -0.233454,-1.27652 -0.233789,-1.30874 -2.64e-4,-0.0323 -0.492857,-0.0586 -1.094493,-0.0586 -0.601633,0 -1.094152,0.0264 -1.094489,0.0586 -2.91e-4,0.0322 -0.105543,0.62116 -0.23379,1.30874 -0.128249,0.68758 -0.233453,1.25893 -0.233791,1.26968 -2.64e-4,0.0108 0.702596,0.0196 1.56207,0.0196 0.859478,0 1.562408,-0.009 1.562074,-0.0196 z m 3.641663,-26.18667 0.265657,-0.26565 v -4.93808 -4.93808 l -0.265657,-0.26566 -0.265655,-0.26566 h -4.938082 -4.938078 l -0.265655,0.26566 -0.265658,0.26566 v 4.93808 4.93808 l 0.265658,0.26565 0.265655,0.26566 h 4.938078 4.938082 z m -7.330929,-1.65323 c -0.117095,-0.0635 -0.248946,-0.18288 -0.293002,-0.2652 -0.109609,-0.20481 -0.10928,-6.36641 2.65e-4,-6.57127 0.168344,-0.31448 0.474324,-0.38634 1.645128,-0.38634 1.208298,0 1.551812,0.0667 2.120117,0.41167 1.307543,0.79368 1.546042,2.67134 0.483593,3.80719 -0.55243,0.59059 -1.286249,0.85823 -2.356364,0.85941 l -0.410202,4.5e-4 v 0.74479 c 0,0.46019 -0.04163,0.84442 -0.108947,1.00553 -0.199952,0.47855 -0.633391,0.63649 -1.080635,0.39378 z m 2.46969,-3.81513 c 0.726021,-0.30335 0.798819,-1.31811 0.123197,-1.7172 -0.149135,-0.0881 -0.400689,-0.12779 -0.809818,-0.12779 h -0.593485 v 0.97667 0.97668 h 0.510382 c 0.28071,0 0.627087,-0.0488 0.769724,-0.10836 z"
       id="path845-3"
       inkscape:connector-curvature="0"
       sodipodi:nodetypes="ccssccccccsccscssccccccsscsccccscccscccccccccccccccccccccsscccscccccscccsc" />
    <path
       style="fill:#000000;stroke-width:0.09323125"
       d="m 114.24203,214.19481 c -0.35894,-0.0755 -1.04914,-0.32887 -1.53377,-0.563 -0.74018,-0.35758 -1.01062,-0.55514 -1.69027,-1.23479 -0.6802,-0.6802 -0.87683,-0.94948 -1.23423,-1.69026 -0.94572,-1.96015 -0.94572,-3.81111 0,-5.77126 0.3574,-0.74078 0.55403,-1.01005 1.23423,-1.69026 0.67965,-0.67965 0.95009,-0.87721 1.69027,-1.23479 1.48712,-0.71843 2.96409,-0.87983 4.45423,-0.48674 l 0.48898,0.129 0.7507,-1.4992 c 0.64638,-1.29087 0.73693,-1.52939 0.65165,-1.71656 -0.0545,-0.11956 -0.47765,-0.8642 -0.9404,-1.65476 -0.96499,-1.64859 -1.03197,-1.93041 -0.56885,-2.39353 l 0.27252,-0.27253 h 2.66754 c 2.99137,0 3.0387,0.009 3.22994,0.64778 0.0859,0.28658 0.0767,0.40047 -0.0521,0.64967 -0.25174,0.4868 -0.58141,0.56718 -2.32615,0.56718 h -1.53565 l 0.4801,0.83908 0.4801,0.83908 h 6.2735 c 3.45042,0 6.27406,-0.0315 6.27474,-0.0699 7.9e-4,-0.0385 -0.24055,-0.9824 -0.53608,-2.09765 l -0.53732,-2.02774 -0.91617,-5e-5 c -0.88828,-4e-5 -0.92448,-0.008 -1.1887,-0.27256 -0.54606,-0.54606 -0.27112,-1.40324 0.49625,-1.5472 0.1779,-0.0334 0.8574,-0.0466 1.50999,-0.0295 1.18518,0.0311 1.18683,0.0315 1.43505,0.31121 0.20846,0.23488 0.44384,1.01239 1.46052,4.82447 l 1.21201,4.54446 0.67986,2.9e-4 c 1.01545,3.2e-4 2.00369,0.23646 2.99823,0.7163 0.74078,0.35741 1.01005,0.55403 1.69026,1.23424 0.68021,0.68021 0.87683,0.94948 1.23424,1.69026 0.94571,1.96015 0.94571,3.81112 0,5.77126 -0.35741,0.74079 -0.55403,1.01005 -1.23424,1.69027 -0.68021,0.6802 -0.94948,0.87683 -1.69026,1.23423 -1.96014,0.94572 -3.81111,0.94572 -5.77126,0 -0.74078,-0.3574 -1.01005,-0.55403 -1.69026,-1.23423 -0.68021,-0.68022 -0.87683,-0.94948 -1.23424,-1.69027 -0.93972,-1.94773 -0.93826,-3.85858 0.004,-5.77579 0.36181,-0.73583 0.57039,-1.02009 1.23267,-1.67984 0.4995,-0.4976 1.01475,-0.90871 1.37987,-1.10094 0.32049,-0.16874 0.5827,-0.34989 0.5827,-0.40256 0,-0.22208 -0.32488,-1.29204 -0.38549,-1.26963 -0.0364,0.0135 -1.80918,1.8285 -3.9395,4.03342 -2.13033,2.20492 -3.96908,4.06077 -4.08612,4.12411 -0.1485,0.0804 -0.77869,0.11558 -2.08588,0.11654 l -1.8731,0.001 -0.11546,0.53608 c -0.0635,0.29484 -0.30597,0.9326 -0.53883,1.41724 -0.35634,0.7417 -0.55071,1.00852 -1.22814,1.68596 -0.67143,0.67142 -0.95155,0.87646 -1.69026,1.23723 -1.40787,0.68756 -2.78619,0.87111 -4.24179,0.56486 z m 2.96237,-2.02713 c 0.77566,-0.29196 1.32545,-0.66333 1.84187,-1.24414 0.3577,-0.4023 0.91258,-1.42073 1.06807,-1.96032 l 0.0604,-0.20978 h -2.43962 -2.43962 l -0.31698,-0.31698 c -0.19846,-0.19846 -0.31699,-0.40792 -0.31699,-0.56017 0,-0.13374 0.48166,-1.2058 1.07035,-2.38233 0.65393,-1.3069 1.03244,-2.16259 0.9729,-2.19939 -0.0536,-0.0331 -0.41989,-0.0823 -0.81397,-0.10916 -1.33802,-0.0914 -2.56608,0.3832 -3.55778,1.37491 -1.86232,1.86232 -1.86232,4.6593 0,6.52163 0.63641,0.63641 1.28262,1.01536 2.14468,1.2577 0.73421,0.20639 1.92014,0.1316 2.72664,-0.17197 z m 20.90855,0.17036 c 0.8844,-0.23024 1.53052,-0.60168 2.18493,-1.25609 1.86233,-1.86233 1.86233,-4.65931 0,-6.52163 -0.86084,-0.86085 -2.07375,-1.40075 -3.14682,-1.40075 -0.34314,0 -0.39874,0.0253 -0.35796,0.16315 0.0266,0.0897 0.30428,1.12282 0.61715,2.29575 0.62192,2.33151 0.63263,2.51195 0.1722,2.89938 -0.36927,0.31072 -0.74615,0.30365 -1.10837,-0.0208 -0.25804,-0.23114 -0.34489,-0.47545 -0.88182,-2.48084 -0.32758,-1.22344 -0.61508,-2.24391 -0.63889,-2.26772 -0.10099,-0.101 -0.70647,0.31826 -1.22601,0.84895 -1.81362,1.85253 -1.79258,4.64301 0.0489,6.48449 1.18716,1.18716 2.80333,1.65527 4.3367,1.25609 z m -17.99861,-5.65899 c -0.17204,-0.59705 -0.72084,-1.57361 -1.13956,-2.02778 -0.26001,-0.28203 -0.49302,-0.4918 -0.5178,-0.46616 -0.0248,0.0257 -0.34376,0.64447 -0.70884,1.37516 l -0.6638,1.32855 h 1.54522 1.54522 z m 2.03354,-2.93679 c -1.00186,-1.7306 -1.83492,-3.16144 -1.85124,-3.17964 -0.0163,-0.0182 -0.24116,0.38834 -0.49963,0.90341 l -0.46996,0.93649 0.82033,0.82137 c 0.92039,0.92157 1.44668,1.82458 1.75029,3.00318 l 0.17047,0.66175 h 0.95065 0.95066 z m 9.30754,-3.3097 0.84737,-0.90901 h -5.23335 -5.23336 l 0.13154,0.20977 c 0.0723,0.11537 0.91798,1.57328 1.8792,3.23979 0.96121,1.6665 1.7942,3.08852 1.85107,3.16002 0.083,0.1044 0.57694,-0.35483 2.50678,-2.33078 1.32186,-1.35343 2.7847,-2.86984 3.25075,-3.36979 z m -14.61383,-1.05662 c -0.65898,-0.32511 -0.68087,-1.24353 -0.0376,-1.5762 0.39028,-0.20182 0.69349,-0.17441 1.0092,0.0912 0.52233,0.43951 0.41116,1.23716 -0.20851,1.49608 -0.39878,0.16662 -0.40295,0.16656 -0.76312,-0.0111 z m 20.02885,0.005 c -0.59943,-0.25601 -0.70072,-1.05848 -0.18808,-1.48985 0.59985,-0.50473 1.47349,-0.0655 1.47349,0.74077 0,0.28736 -0.42657,0.76222 -0.74585,0.83029 -0.12819,0.0273 -0.371,-0.009 -0.53956,-0.0812 z"
       id="path845"
       inkscape:connector-curvature="0"
       sodipodi:nodetypes="ccccccccccccscsscscccsccccccccscccscccccccsccscccccccccccsscccccssccscssccsscsscscccccccccccccsccccccccssccccccsscccccccsscc" />
    <path
       style="fill:none;stroke:#000000;stroke-width:0.26458332px;stroke-linecap:butt;stroke-linejoin:miter;stroke-opacity:1"
       d="m 90.294983,191.25645 v 23.43452"
       id="path909"
       inkscape:connector-curvature="0" />
    <text
       xml:space="preserve"
       style="font-style:normal;font-weight:normal;font-size:10.58333302px;line-height:1.25;font-family:sans-serif;letter-spacing:0px;word-spacing:0px;fill:#000000;fill-opacity:1;stroke:none;stroke-width:0.26458332"
       x="49.087921"
       y="206.8262"
       id="text822"><tspan
         sodipodi:role="line"
         id="tspan820"
         x="49.087921"
         y="206.8262"
         style="font-style:normal;font-variant:normal;font-weight:bold;font-stretch:normal;font-family:sans-serif;-inkscape-font-specification:'sans-serif Bold';stroke-width:0.26458332">x 36</tspan></text>
    <text
       xml:space="preserve"
       style="font-style:normal;font-weight:normal;font-size:10.58333302px;line-height:1.25;font-family:sans-serif;letter-spacing:0px;word-spacing:0px;fill:#000000;fill-opacity:1;stroke:none;stroke-width:0.26458332"
       x="158.77658"
       y="206.8262"
       id="text826"><tspan
         sodipodi:role="line"
         id="tspan824"
         x="158.77658"
         y="206.8262"
         style="font-style:normal;font-variant:normal;font-weight:bold;font-stretch:normal;font-family:sans-serif;-inkscape-font-specification:'sans-serif Bold';stroke-width:0.26458332">x 196</tspan></text>
  </g>
</svg>
