<?xml version="1.0" encoding="UTF-8" standalone="no"?>
<!-- Created with Inkscape (http://www.inkscape.org/) -->

<svg
   xmlns:dc="http://purl.org/dc/elements/1.1/"
   xmlns:cc="http://creativecommons.org/ns#"
   xmlns:rdf="http://www.w3.org/1999/02/22-rdf-syntax-ns#"
   xmlns:svg="http://www.w3.org/2000/svg"
   xmlns="http://www.w3.org/2000/svg"
   xmlns:sodipodi="http://sodipodi.sourceforge.net/DTD/sodipodi-0.dtd"
   xmlns:inkscape="http://www.inkscape.org/namespaces/inkscape"
   width="180.45262mm"
   height="39.963322mm"
   viewBox="0 0 180.45262 39.963321"
   version="1.1"
   id="svg8"
   inkscape:version="0.92.5 (2060ec1f9f, 2020-04-08)"
   sodipodi:docname="1_trips.svg"
   inkscape:export-filename="/home/martin/Development/nextbikemr/notebooks/img/2_for_city/1_trips.png"
   inkscape:export-xdpi="100"
   inkscape:export-ydpi="100">
  <defs
     id="defs2" />
  <sodipodi:namedview
     id="base"
     pagecolor="#ffffff"
     bordercolor="#666666"
     borderopacity="1.0"
     inkscape:pageopacity="0.0"
     inkscape:pageshadow="2"
     inkscape:zoom="0.7"
     inkscape:cx="137.09533"
     inkscape:cy="192.22721"
     inkscape:document-units="mm"
     inkscape:current-layer="layer1"
     showgrid="false"
     inkscape:window-width="1920"
     inkscape:window-height="1151"
     inkscape:window-x="0"
     inkscape:window-y="25"
     inkscape:window-maximized="1" />
  <metadata
     id="metadata5">
    <rdf:RDF>
      <cc:Work
         rdf:about="">
        <dc:format>image/svg+xml</dc:format>
        <dc:type
           rdf:resource="http://purl.org/dc/dcmitype/StillImage" />
        <dc:title />
      </cc:Work>
    </rdf:RDF>
  </metadata>
  <g
     inkscape:label="Layer 1"
     inkscape:groupmode="layer"
     id="layer1"
     transform="translate(-22.469019,-182.99205)">
    <path
       style="fill:#000000;stroke-width:0.07813418"
       d="m 26.656728,222.85886 c -0.103291,-0.0531 -0.258985,-0.1924 -0.345986,-0.30959 -0.180495,-0.24314 -0.190414,-0.16256 0.42103,-3.42017 0.367323,-1.957 0.364843,-1.95335 1.328196,-1.95335 h 0.620716 V 207.1018 197.02786 l -2.246358,-0.0249 c -2.104476,-0.0233 -2.269301,-0.0355 -2.609614,-0.19282 -0.46433,-0.21465 -0.973126,-0.72345 -1.18777,-1.18777 -0.166564,-0.36032 -0.167923,-0.40602 -0.167923,-5.63732 0,-5.2313 0.0014,-5.277 0.167923,-5.63731 0.214644,-0.46433 0.72344,-0.97313 1.18777,-1.18777 0.360314,-0.16656 0.406011,-0.16792 5.637313,-0.16792 5.231306,0 5.277003,0.001 5.637317,0.16792 0.46433,0.21465 0.973123,0.72344 1.18777,1.18777 0.166563,0.36031 0.167923,0.40601 0.167923,5.63731 0,5.2313 -0.0014,5.277 -0.167923,5.63732 -0.214647,0.46433 -0.72344,0.97312 -1.18777,1.18777 -0.340314,0.15732 -0.505139,0.16949 -2.609618,0.19282 l -2.246355,0.0249 v 10.07394 10.07395 h 0.620717 c 0.96335,0 0.960869,-0.004 1.328196,1.95335 0.611444,3.25761 0.601524,3.17703 0.42103,3.42017 -0.296953,0.4 -0.344345,0.4061 -3.151287,0.4061 -1.923887,0 -2.667261,-0.0256 -2.805297,-0.0965 z m 4.367371,-1.4834 c -2.64e-4,-0.0107 -0.105542,-0.5821 -0.233792,-1.26968 -0.128247,-0.68758 -0.233454,-1.27652 -0.233789,-1.30874 -2.64e-4,-0.0323 -0.492857,-0.0586 -1.094493,-0.0586 -0.601633,0 -1.094152,0.0264 -1.094489,0.0586 -2.91e-4,0.0322 -0.105543,0.62116 -0.23379,1.30874 -0.128249,0.68758 -0.233453,1.25893 -0.233791,1.26968 -2.64e-4,0.0108 0.702596,0.0196 1.56207,0.0196 0.859478,0 1.562408,-0.009 1.562074,-0.0196 z m 3.641663,-26.18667 0.265657,-0.26565 v -4.93808 -4.93808 l -0.265657,-0.26566 -0.265655,-0.26566 h -4.938082 -4.938078 l -0.265655,0.26566 -0.265658,0.26566 v 4.93808 4.93808 l 0.265658,0.26565 0.265655,0.26566 h 4.938078 4.938082 z m -7.330929,-1.65323 c -0.117095,-0.0635 -0.248946,-0.18288 -0.293002,-0.2652 -0.109609,-0.20481 -0.10928,-6.36641 2.65e-4,-6.57127 0.168345,-0.31448 0.474325,-0.38634 1.645129,-0.38634 1.208297,0 1.551811,0.0667 2.120116,0.41167 1.307543,0.79368 1.546043,2.67134 0.483593,3.80719 -0.55243,0.59059 -1.286249,0.85823 -2.356363,0.85941 l -0.410202,4.5e-4 v 0.74479 c 0,0.46019 -0.04163,0.84442 -0.108947,1.00553 -0.199952,0.47855 -0.633391,0.63649 -1.080636,0.39378 z m 2.46969,-3.81513 c 0.726021,-0.30335 0.798819,-1.31811 0.123197,-1.7172 -0.149135,-0.0881 -0.400689,-0.12779 -0.809818,-0.12779 h -0.593485 v 0.97667 0.97668 h 0.510382 c 0.28071,0 0.627087,-0.0488 0.769724,-0.10836 z"
       id="path845-3"
       inkscape:connector-curvature="0"
       sodipodi:nodetypes="ccssccccccsccscssccccccsscsccccscccscccccccccccccccccccccsscccscccccscccsc" />
    <g
       id="g899"
       transform="translate(42.387228,-49.432534)">
      <path
         sodipodi:nodetypes="ccccccccccccscsscscccsccccccccscccscccccccsccscccccccccccsscccccssccscssccsscsscscccccccccccccsccccccccssccccccsscccccccsscc"
         inkscape:connector-curvature="0"
         id="path845"
         d="m 18.739769,257.20175 c -0.35894,-0.0755 -1.049139,-0.32887 -1.533776,-0.563 -0.740173,-0.35758 -1.010614,-0.55514 -1.690262,-1.23479 -0.680207,-0.6802 -0.87683,-0.94948 -1.234238,-1.69026 -0.945716,-1.96015 -0.945716,-3.81111 0,-5.77126 0.357408,-0.74078 0.554031,-1.01005 1.234238,-1.69026 0.679648,-0.67965 0.95009,-0.87721 1.690262,-1.23479 1.487119,-0.71843 2.964093,-0.87983 4.454236,-0.48674 l 0.488977,0.129 0.750697,-1.4992 c 0.646386,-1.29087 0.736938,-1.52939 0.651659,-1.71656 -0.05447,-0.11956 -0.477656,-0.8642 -0.940409,-1.65476 -0.96499,-1.64859 -1.031967,-1.93041 -0.568848,-2.39353 l 0.272523,-0.27253 h 2.667542 c 2.991365,0 3.0387,0.009 3.229935,0.64778 0.08586,0.28658 0.07672,0.40047 -0.05215,0.64967 -0.251734,0.4868 -0.581407,0.56718 -2.326151,0.56718 H 24.29836 l 0.480096,0.83908 0.480097,0.83908 h 6.273503 c 3.450425,0 6.274062,-0.0315 6.274743,-0.0699 6.7e-4,-0.0385 -0.240552,-0.9824 -0.536078,-2.09765 l -0.537322,-2.02774 -0.916174,-5e-5 c -0.88828,-4e-5 -0.924476,-0.008 -1.188701,-0.27256 -0.546054,-0.54606 -0.271119,-1.40324 0.496257,-1.5472 0.177899,-0.0334 0.857396,-0.0466 1.50999,-0.0295 1.185173,0.0311 1.186824,0.0315 1.43505,0.31121 0.208459,0.23488 0.443838,1.01239 1.460517,4.82447 l 1.212007,4.54446 0.679857,2.8e-4 c 1.015459,3.3e-4 2.003692,0.23646 2.998234,0.7163 0.740783,0.35741 1.010056,0.55403 1.690263,1.23424 0.680208,0.68021 0.87683,0.94948 1.234236,1.69026 0.945717,1.96015 0.945717,3.81112 0,5.77126 -0.357406,0.74079 -0.554028,1.01005 -1.234236,1.69027 -0.680207,0.6802 -0.94948,0.87683 -1.690263,1.23423 -1.960143,0.94572 -3.811112,0.94572 -5.771256,0 -0.740783,-0.3574 -1.010052,-0.55403 -1.690263,-1.23423 -0.680208,-0.68022 -0.87683,-0.94948 -1.234236,-1.69027 -0.939728,-1.94773 -0.938264,-3.85858 0.0044,-5.77579 0.361803,-0.73583 0.570387,-1.02009 1.23267,-1.67984 0.499498,-0.4976 1.01476,-0.90871 1.37987,-1.10094 0.320482,-0.16874 0.582695,-0.34989 0.582695,-0.40256 0,-0.22208 -0.324873,-1.29204 -0.385492,-1.26963 -0.03641,0.0135 -1.809178,1.8285 -3.939499,4.03342 -2.130325,2.20492 -3.969073,4.06077 -4.086108,4.12411 -0.148505,0.0804 -0.778688,0.11558 -2.085891,0.11654 l -1.873094,0.001 -0.115462,0.53608 c -0.06351,0.29484 -0.305974,0.9326 -0.538819,1.41724 -0.356352,0.7417 -0.550722,1.00852 -1.228154,1.68596 -0.671427,0.67142 -0.951548,0.87646 -1.690264,1.23723 -1.407869,0.68756 -2.786189,0.87111 -4.241782,0.56486 z m 2.962365,-2.02713 c 0.775661,-0.29196 1.325454,-0.66333 1.841876,-1.24414 0.357696,-0.4023 0.91258,-1.42073 1.068064,-1.96032 l 0.06044,-0.20978 h -2.439619 -2.439617 l -0.316986,-0.31698 c -0.198457,-0.19846 -0.316987,-0.40792 -0.316987,-0.56017 0,-0.13374 0.48166,-1.2058 1.070354,-2.38233 0.653925,-1.3069 1.032438,-2.16259 0.972898,-2.19939 -0.0536,-0.0331 -0.419887,-0.0823 -0.813968,-0.10916 -1.338018,-0.0914 -2.566079,0.3832 -3.557785,1.37491 -1.86232,1.86232 -1.86232,4.6593 0,6.52163 0.636412,0.63641 1.282621,1.01536 2.144685,1.2577 0.734209,0.20639 1.920139,0.1316 2.726641,-0.17197 z m 20.908553,0.17036 c 0.884402,-0.23024 1.530524,-0.60168 2.184935,-1.25609 1.862321,-1.86233 1.862321,-4.65931 0,-6.52163 -0.860848,-0.86085 -2.073753,-1.40075 -3.146837,-1.40075 -0.343132,0 -0.398732,0.0253 -0.357944,0.16315 0.02656,0.0897 0.304279,1.12282 0.61715,2.29575 0.621913,2.33151 0.63263,2.51195 0.1722,2.89938 -0.369275,0.31072 -0.746151,0.30365 -1.10837,-0.0208 -0.258047,-0.23114 -0.344889,-0.47545 -0.881828,-2.48084 -0.327575,-1.22344 -0.615073,-2.24391 -0.638881,-2.26772 -0.100994,-0.101 -0.706471,0.31826 -1.22601,0.84895 -1.813628,1.85253 -1.792585,4.64301 0.04889,6.48449 1.187158,1.18716 2.803325,1.65527 4.336691,1.25609 z m -17.998613,-5.65899 c -0.172041,-0.59705 -0.72084,-1.57361 -1.139558,-2.02778 -0.260013,-0.28203 -0.493019,-0.4918 -0.517795,-0.46616 -0.02478,0.0257 -0.34376,0.64447 -0.708846,1.37516 l -0.663798,1.32855 h 1.54522 1.545221 z m 2.033547,-2.93679 c -1.00186,-1.7306 -1.834919,-3.16144 -1.851241,-3.17964 -0.01632,-0.0182 -0.24116,0.38834 -0.499634,0.90341 l -0.469955,0.93649 0.820325,0.82137 c 0.92039,0.92157 1.446678,1.82458 1.75029,3.00318 l 0.170473,0.66175 h 0.950652 0.950656 z m 9.307536,-3.3097 0.84737,-0.90901 h -5.233354 -5.233357 l 0.131538,0.20977 c 0.07234,0.11537 0.917985,1.57328 1.879199,3.23979 0.961217,1.6665 1.7942,3.08852 1.851069,3.16002 0.08303,0.1044 0.576944,-0.35483 2.506785,-2.33078 1.32186,-1.35343 2.7847,-2.86984 3.25075,-3.36979 z m -14.613826,-1.05662 c -0.658988,-0.32511 -0.680878,-1.24353 -0.03757,-1.5762 0.390276,-0.20182 0.693485,-0.17441 1.009191,0.0912 0.522335,0.43951 0.411166,1.23716 -0.208508,1.49608 -0.398779,0.16662 -0.402951,0.16656 -0.763114,-0.0111 z m 20.028834,0.005 c -0.599415,-0.25601 -0.700709,-1.05848 -0.188064,-1.48985 0.599845,-0.50473 1.473482,-0.0655 1.473482,0.74077 0,0.28736 -0.426564,0.76222 -0.745849,0.83029 -0.128191,0.0273 -0.370996,-0.009 -0.539569,-0.0812 z"
         style="fill:#000000;stroke-width:0.09323125" />
    </g>
    <path
       style="fill:#000000;stroke-width:0.07813418"
       d="m 127.00898,222.85886 c -0.10329,-0.0531 -0.25899,-0.1924 -0.34599,-0.30959 -0.18049,-0.24314 -0.19041,-0.16256 0.42103,-3.42017 0.36732,-1.957 0.36484,-1.95335 1.3282,-1.95335 h 0.62071 V 207.1018 197.02786 l -2.24636,-0.0249 c -2.10447,-0.0233 -2.2693,-0.0355 -2.60961,-0.19282 -0.46433,-0.21465 -0.97313,-0.72345 -1.18777,-1.18777 -0.16657,-0.36032 -0.16793,-0.40602 -0.16793,-5.63732 0,-5.2313 0.001,-5.277 0.16793,-5.63731 0.21464,-0.46433 0.72344,-0.97313 1.18777,-1.18777 0.36031,-0.16656 0.40601,-0.16792 5.63731,-0.16792 5.23131,0 5.27701,0.001 5.63732,0.16792 0.46433,0.21465 0.97313,0.72344 1.18777,1.18777 0.16657,0.36031 0.16793,0.40601 0.16793,5.63731 0,5.2313 -0.001,5.277 -0.16793,5.63732 -0.21464,0.46433 -0.72344,0.97312 -1.18777,1.18777 -0.34031,0.15732 -0.50514,0.16949 -2.60961,0.19282 l -2.24636,0.0249 v 10.07394 10.07395 h 0.62071 c 0.96336,0 0.96088,-0.004 1.3282,1.95335 0.61145,3.25761 0.60153,3.17703 0.42103,3.42017 -0.29695,0.4 -0.34434,0.4061 -3.15129,0.4061 -1.92388,0 -2.66726,-0.0256 -2.80529,-0.0965 z m 4.36737,-1.4834 c -2.6e-4,-0.0107 -0.10554,-0.5821 -0.23379,-1.26968 -0.12825,-0.68758 -0.23346,-1.27652 -0.23379,-1.30874 -2.6e-4,-0.0323 -0.49286,-0.0586 -1.0945,-0.0586 -0.60163,0 -1.09415,0.0264 -1.09449,0.0586 -2.6e-4,0.0322 -0.10554,0.62116 -0.23379,1.30874 -0.12824,0.68758 -0.23345,1.25893 -0.23379,1.26968 -2.6e-4,0.0108 0.7026,0.0196 1.56207,0.0196 0.85948,0 1.56241,-0.009 1.56208,-0.0196 z m 3.64166,-26.18667 0.26566,-0.26565 v -4.93808 -4.93808 l -0.26566,-0.26566 -0.26565,-0.26566 h -4.93809 -4.93808 l -0.26565,0.26566 -0.26566,0.26566 v 4.93808 4.93808 l 0.26566,0.26565 0.26565,0.26566 h 4.93808 4.93809 z m -7.33093,-1.65323 c -0.11709,-0.0635 -0.24894,-0.18288 -0.293,-0.2652 -0.10961,-0.20481 -0.10928,-6.36641 2.6e-4,-6.57127 0.16835,-0.31448 0.47433,-0.38634 1.64513,-0.38634 1.2083,0 1.55181,0.0667 2.12012,0.41167 1.30755,0.79368 1.54605,2.67134 0.48359,3.80719 -0.55243,0.59059 -1.28625,0.85823 -2.35636,0.85941 l -0.4102,4.5e-4 v 0.74479 c 0,0.46019 -0.0416,0.84442 -0.10895,1.00553 -0.19995,0.47855 -0.63339,0.63649 -1.08064,0.39378 z m 2.46969,-3.81513 c 0.72602,-0.30335 0.79882,-1.31811 0.1232,-1.7172 -0.14914,-0.0881 -0.40069,-0.12779 -0.80982,-0.12779 h -0.59348 v 0.97667 0.97668 h 0.51038 c 0.28071,0 0.62708,-0.0488 0.76972,-0.10836 z"
       id="path845-3-3"
       inkscape:connector-curvature="0"
       sodipodi:nodetypes="ccssccccccsccscssccccccsscsccccscccscccccccccccccccccccccsscccscccccscccsc" />
    <path
       style="fill:none;stroke:#000000;stroke-width:2;stroke-linecap:round;stroke-linejoin:miter;stroke-miterlimit:4;stroke-dasharray:none;stroke-opacity:1"
       d="M 37.021102,209.91521 H 117.15205"
       id="path850"
       inkscape:connector-curvature="0" />
    <path
       style="fill:none;stroke:#000000;stroke-width:2;stroke-linecap:round;stroke-linejoin:miter;stroke-miterlimit:4;stroke-dasharray:none;stroke-opacity:1"
       d="m 107.12945,199.89261 10.0226,10.0226"
       id="path850-7"
       inkscape:connector-curvature="0"
       sodipodi:nodetypes="cc" />
    <path
       style="fill:none;stroke:#000000;stroke-width:2;stroke-linecap:round;stroke-linejoin:miter;stroke-miterlimit:4;stroke-dasharray:none;stroke-opacity:1"
       d="m 117.15205,209.91521 -10.0226,10.0226"
       id="path850-7-5"
       inkscape:connector-curvature="0"
       sodipodi:nodetypes="cc" />
    <text
       xml:space="preserve"
       style="font-style:normal;font-weight:normal;font-size:10.58333302px;line-height:1.25;font-family:sans-serif;letter-spacing:0px;word-spacing:0px;fill:#000000;fill-opacity:1;stroke:none;stroke-width:0.26458332"
       x="143.78787"
       y="206.14923"
       id="text872"><tspan
         sodipodi:role="line"
         id="tspan870"
         x="143.78787"
         y="206.14923"
         style="font-style:normal;font-variant:normal;font-weight:bold;font-stretch:normal;font-family:sans-serif;-inkscape-font-specification:'sans-serif Bold';stroke-width:0.26458332">x 107,428</tspan></text>
  </g>
</svg>
